<svg width="24" height="24" viewBox="0 0 24 24" fill="none" xmlns="http://www.w3.org/2000/svg">
<path d="M4.34665 13.143C4.44534 14.0498 4.69577 14.9359 5.08856 15.7682L5.10133 15.7952C5.41009 16.442 5.82701 17.0375 6.33607 17.5588C6.34402 17.567 6.35126 17.5759 6.35856 17.5849L6.37014 17.5989L6.36906 17.5989L6.36379 17.5972C5.91705 17.451 5.49437 17.2457 5.10835 16.9875C4.5954 16.6422 4.16069 16.2031 3.82985 15.6962C3.49902 15.1893 3.27878 14.6248 3.18211 14.0359C3.05951 13.4044 2.99819 12.7641 2.99854 12.1233C2.99868 11.8185 3.01278 11.5135 3.04086 11.2093C3.14552 9.8599 3.57125 8.5504 4.28618 7.37888C5.4102 5.43005 7.30485 3.98304 9.55434 3.35541L9.57449 3.34952C10.7141 3.01755 11.9156 2.91969 13.0985 3.06257C14.2884 3.2063 15.4318 3.59027 16.4514 4.18852C17.8986 5.00778 19.0767 6.19203 19.8538 7.60889C20.383 8.53737 20.7337 9.54749 20.8897 10.5921C20.9778 11.1178 21.0169 11.6463 21.0084 12.172C20.9813 13.8709 20.4564 15.5406 19.4762 16.9885C18.6499 18.2306 17.5006 19.2508 16.1386 19.9516L16.1145 19.9639L16.1103 19.9661C14.6751 20.7171 13.0461 21.0717 11.4086 20.9896C10.5233 20.9659 9.65319 20.7655 8.85529 20.4016C8.26719 20.1514 7.7872 19.7182 7.49511 19.174C7.27098 18.7074 7.20661 18.1861 7.311 17.6832C7.43637 17.0528 7.68161 16.4493 8.03479 15.902C8.10556 15.7948 8.1347 15.6677 8.11722 15.5424C8.02366 14.6845 8.07936 13.8178 8.28209 12.977C8.61652 11.4609 9.18462 9.99973 9.96817 8.64025C10.2892 8.04955 10.6896 7.50207 11.1584 7.01106C11.3631 6.79625 11.5809 6.59222 11.8109 6.40007C12.3316 5.94733 12.9786 5.64555 13.675 5.53054C13.8861 5.51543 14.098 5.51403 14.3092 5.52638L12.9353 9.12263L12.9327 9.12173L12.9303 9.12783C12.7997 9.08279 12.6567 9.08174 12.5254 9.12487C12.4299 9.15623 12.3448 9.20955 12.2774 9.27936C12.254 9.30411 12.2329 9.33087 12.2143 9.3594C12.0216 9.60476 11.8526 9.86599 11.7092 10.1399C11.1615 11.2096 10.7695 12.3446 10.5441 13.514C10.5164 13.661 10.5028 13.8101 10.5035 13.9594C10.4895 14.0763 10.517 14.1943 10.5817 14.2947C10.6464 14.3952 10.7445 14.4724 10.8607 14.5142L9.51204 18.0199L9.50915 18.0181L9.50708 18.0235C8.94956 17.6896 8.5327 17.1819 8.3283 16.5881C8.31592 16.6246 8.30299 16.661 8.29005 16.6974C8.25955 16.7833 8.22903 16.8692 8.20572 16.9568C8.07696 17.3474 8.07722 17.766 8.20646 18.1566C8.3357 18.5471 8.58776 18.891 8.92895 19.1423C9.37534 19.4822 9.89436 19.7264 10.4502 19.8578C11.2495 20.0662 12.086 20.1146 12.9062 19.9999C13.618 19.902 14.3069 19.713 14.9553 19.4415C15.9664 19.0174 16.8791 18.3929 17.6275 17.6015C18.5876 16.6368 19.2894 15.4681 19.6741 14.1936C19.9802 13.208 20.0736 12.1741 19.9489 11.1536C19.7835 9.82302 19.2602 8.5549 18.429 7.47066C17.5978 6.38642 16.4866 5.52237 15.2017 4.96126C14.0199 4.43398 12.7127 4.20951 11.4107 4.3102L11.4031 4.3108L11.3823 4.31239C11.2781 4.32047 11.1743 4.33062 11.0709 4.34283C9.41738 4.53807 7.8783 5.25764 6.70759 6.38915C5.58197 7.44534 4.80715 8.79018 4.47854 10.2581C4.2661 11.2062 4.22153 12.1811 4.34665 13.143Z" fill="currentColor"/>
<path d="M14.2251 9.57587C14.2831 9.60112 14.3462 9.6141 14.4101 9.61392L14.415 9.61392C14.4792 9.61359 14.5425 9.59995 14.6006 9.57396C14.6586 9.54797 14.7099 9.51027 14.7509 9.46349C14.7919 9.41671 14.8216 9.362 14.8379 9.3032C14.9179 9.09479 14.9974 8.88823 15.0768 8.68167L15.1957 8.37278C15.4283 7.76916 15.6608 7.16553 15.8931 6.56191C15.9187 6.50805 15.9318 6.44966 15.9318 6.39061C15.9317 6.33155 15.9183 6.27319 15.8926 6.2194C15.8669 6.16561 15.8294 6.11761 15.7825 6.0786C15.7357 6.03959 15.6807 6.01046 15.621 5.99315C15.5687 5.97339 15.5155 5.95524 15.463 5.93735L14.5961 5.63982L14.5939 5.6393L14.5922 5.63982L13.2134 9.22254C13.2288 9.22867 13.2426 9.23438 13.2554 9.23969C13.2775 9.2488 13.2967 9.25675 13.3161 9.26365L14.2251 9.57587Z" fill="currentColor"/>
<path d="M9.82914 18.0199L9.82424 18.0322C9.80417 18.0823 9.78662 18.126 9.872 18.1515C10.0364 18.2051 10.1998 18.2616 10.3631 18.318C10.517 18.3713 10.6709 18.4244 10.8255 18.4752C10.8813 18.4974 10.9415 18.5082 11.002 18.5069C11.0625 18.5056 11.122 18.4922 11.1767 18.4677C11.2315 18.4431 11.2801 18.4079 11.3195 18.3644C11.348 18.3329 11.3712 18.2975 11.3884 18.2594C11.3955 18.244 11.4016 18.2281 11.4067 18.2119C11.4215 18.1737 11.4362 18.1356 11.451 18.0974C11.7702 17.2755 12.0873 16.4516 12.4022 15.6257C12.4185 15.5834 12.4347 15.541 12.4509 15.4987C12.4913 15.3974 12.4875 15.285 12.4406 15.1863C12.3936 15.0876 12.3072 15.0106 12.2003 14.9721C12.1397 14.9481 12.0776 14.9272 12.0156 14.9064C11.9927 14.8987 11.9698 14.891 11.947 14.8831L11.1437 14.6089L9.82914 18.0199Z" fill="currentColor"/>
</svg>
