<svg width="24" height="24" viewBox="0 0 24 24" fill="none" xmlns="http://www.w3.org/2000/svg">
<path d="M17.6587 12.1364C17.9356 13.0968 18.2125 14.0572 18.4883 15.0179V15.02C18.5219 15.1358 18.5557 15.2515 18.5894 15.3672C18.7551 15.9347 18.9206 16.5018 19.0617 17.0751C19.1379 17.3678 19.0947 17.6787 18.9416 17.9396C18.7885 18.2004 18.538 18.3897 18.2453 18.4659C17.9526 18.5421 17.6416 18.4989 17.3808 18.3458C17.12 18.1927 16.9307 17.9422 16.8545 17.6495C16.4257 16.189 16.0053 14.7258 15.5849 13.2625C15.3938 12.5972 15.2025 11.9314 15.0106 11.2663C14.4994 9.50082 13.9885 7.73497 13.478 5.96876C13.1463 4.81344 13.3328 4.43244 14.4426 4H14.524C14.8132 4.05742 15.0779 4.20181 15.2828 4.41384C15.4876 4.62587 15.6228 4.89542 15.6702 5.1864C16.323 7.5034 16.9899 9.81666 17.6568 12.13L17.6587 12.1364Z" fill="#002F56"/>
<path d="M7.89806 11.0252C9.92615 9.91249 11.6687 8.34477 12.9888 6.44515L12.9823 6.44461C13.0258 6.39541 13.0733 6.34989 13.1243 6.3085L16.2323 17.1431C15.9699 17.0577 15.7119 16.9705 15.4564 16.8842C14.8998 16.6962 14.3545 16.5119 13.8011 16.3581C12.3536 15.9733 10.8541 15.8214 9.35882 15.908C9.09786 15.9198 8.98104 15.8538 8.90816 15.5907C8.5608 14.3364 8.19451 13.0825 7.82872 11.8303L7.72926 11.4898C7.70814 11.4485 7.69575 11.4033 7.69286 11.357C7.68998 11.3107 7.69666 11.2643 7.7125 11.2207C7.72834 11.1771 7.75299 11.1373 7.78492 11.1036C7.81684 11.07 7.85536 11.0433 7.89806 11.0252Z" fill="currentColor"/>
<path d="M7.22671 11.322L4.89999 12.0031L6.2359 16.6828L8.57976 16.0119L7.22671 11.322Z" fill="currentColor"/>
<path d="M3.08126 13.9858C2.82994 13.0491 3.15949 12.494 4.0994 12.2352H4.10208L4.46807 12.1349L5.82434 16.8361C5.70503 16.8628 5.59793 16.889 5.49826 16.9134C5.3298 16.9547 5.18255 16.9908 5.03341 17.0151C4.73702 17.0594 4.43472 16.992 4.18526 16.8259C3.93579 16.6599 3.75698 16.407 3.68357 16.1164C3.47172 15.4105 3.27095 14.7003 3.08126 13.9858Z" fill="currentColor"/>
<path d="M6.35374 17.1292L6.35427 17.131L6.3532 17.1313L6.35374 17.1292Z" fill="currentColor"/>
<path d="M6.35427 17.131L8.7512 16.4374C8.75954 16.678 8.7689 16.9153 8.77817 17.1503C8.80638 17.8658 8.83374 18.5595 8.8289 19.2528C8.82836 19.3922 8.5824 19.6108 8.41521 19.652C8.3036 19.6791 8.19319 19.7264 8.08235 19.7739C7.80207 19.8939 7.51904 20.0152 7.20684 19.8128C7.11921 19.7298 7.06011 19.6212 7.03804 19.5025C6.86353 18.9125 6.69438 18.3206 6.51779 17.7027L6.51709 17.7002C6.46362 17.5131 6.40946 17.3236 6.35427 17.131Z" fill="currentColor"/>
<path d="M19.1989 13.294C19.6792 13.3356 20.1566 13.4072 20.628 13.5084H20.6248C20.8874 13.5571 21.0642 13.7297 20.9779 13.9906C20.9372 14.1141 20.8271 14.2143 20.7354 14.298C20.6993 14.3309 20.666 14.3612 20.6409 14.3893C20.4642 14.3578 20.2977 14.3305 20.139 14.3044C19.7389 14.2387 19.3881 14.181 19.0478 14.0855C18.9674 14.0426 18.8995 13.9795 18.8509 13.9025C18.8022 13.8255 18.7744 13.7371 18.7702 13.6461C18.8063 13.5561 18.8645 13.4766 18.9394 13.4151C19.0143 13.3536 19.1036 13.3119 19.1989 13.294Z" fill="currentColor"/>
<path d="M17.4113 8.10847C17.6851 8.16205 18.9498 7.02281 18.96 6.66164C18.9443 6.64273 18.9274 6.61738 18.9086 6.5892C18.857 6.51196 18.7912 6.41338 18.699 6.36745C18.6345 6.34105 18.5648 6.32988 18.4952 6.33481C18.4257 6.33974 18.3583 6.36062 18.2982 6.39585C17.8886 6.7205 17.4974 7.06755 17.1262 7.43542C17.0842 7.49906 17.0576 7.57156 17.0483 7.64723C17.039 7.72291 17.0473 7.7997 17.0726 7.87162C17.1095 7.9326 17.1589 7.98506 17.2176 8.02552C17.2762 8.06599 17.3428 8.09353 17.4129 8.10632L17.4113 8.10847Z" fill="currentColor"/>
<path d="M18.8353 10.8625C18.7299 10.7862 18.6246 10.7099 18.6053 10.6158L18.6031 10.6163C18.5936 10.5299 18.6058 10.4424 18.6388 10.3619C18.6717 10.2814 18.7243 10.2104 18.7917 10.1555C19.3052 9.96117 19.8328 9.80638 20.3699 9.69248C20.477 9.67051 20.7117 9.87253 20.745 10.006C20.7549 10.0908 20.7432 10.1769 20.7109 10.256C20.6785 10.3351 20.6267 10.4047 20.5601 10.4582C20.1989 10.6002 19.8253 10.7104 19.4264 10.828C19.2772 10.872 19.1244 10.917 18.9675 10.9652C18.9283 10.9299 18.8818 10.8962 18.8353 10.8625Z" fill="currentColor"/>
</svg>
