<svg id="Group_1998" data-name="Group 1998" xmlns="http://www.w3.org/2000/svg" xmlns:xlink="http://www.w3.org/1999/xlink" width="38.142" height="22.281" viewBox="0 0 38.142 22.281">
  <defs>
    <clipPath id="clip-path">
      <rect id="Rectangle_961" data-name="Rectangle 961" width="38.142" height="22.281" fill="#002f56"/>
    </clipPath>
  </defs>
  <g id="Group_1803" data-name="Group 1803" clip-path="url(#clip-path)">
    <path id="Path_1202" data-name="Path 1202" d="M19.019,12.474a6.16,6.16,0,0,0,2.161-.357l5.53-1.838q5.168-1.719,10.334-3.443a3.374,3.374,0,0,0,.781-.375.519.519,0,0,0,.018-.95,2.776,2.776,0,0,0-.752-.37c-.768-.25-1.544-.475-2.318-.707Q27.859,2.358,20.948.283A6.3,6.3,0,0,0,17.241.275Q9.2,2.691,1.149,5.106A3.135,3.135,0,0,0,.3,5.52a.5.5,0,0,0-.006.913,2.906,2.906,0,0,0,.772.392q7.554,2.524,15.114,5.032a7.963,7.963,0,0,0,2.84.617M7.485,10.529v.328c0,2.313.006,4.627-.006,6.94a1.543,1.543,0,0,0,.4,1.068,5.676,5.676,0,0,0,1.643,1.249,19.488,19.488,0,0,0,8.3,2.132,22.779,22.779,0,0,0,4.143-.148A20.221,20.221,0,0,0,27.6,20.607a7.861,7.861,0,0,0,2.579-1.652,1.651,1.651,0,0,0,.5-1.223c-.017-2.286-.008-4.572-.008-6.858v-.337c-.129.036-.216.055-.3.084-3.031,1.009-6.066,2.008-9.092,3.032a6.541,6.541,0,0,1-4.329.023c-2.441-.828-4.89-1.631-7.336-2.444-.7-.231-1.392-.46-2.129-.7m28.478-1.76c-.47.154-.879.3-1.3.42a.314.314,0,0,0-.262.364q.015,2.2,0,4.4a1.589,1.589,0,0,1-.138.568c-.288.7-.622,1.392-.881,2.107a2.124,2.124,0,0,0,.355,2.233A11.043,11.043,0,0,0,35.044,20a.3.3,0,0,0,.287,0,9.859,9.859,0,0,0,1.114-.911,2.211,2.211,0,0,0,.561-2.389c-.254-.735-.6-1.439-.887-2.162a1.759,1.759,0,0,1-.148-.618c-.012-1.6-.007-3.2-.007-4.807V8.768" transform="translate(-0.001 0)" fill="#002f56"/>
    <path id="Path_1203" data-name="Path 1203" d="M19.018,12.475a7.965,7.965,0,0,1-2.84-.617Q8.619,9.347,1.064,6.825a2.9,2.9,0,0,1-.772-.392A.5.5,0,0,1,.3,5.521a3.132,3.132,0,0,1,.851-.415Q9.191,2.682,17.24.275a6.3,6.3,0,0,1,3.707.009q6.911,2.077,13.823,4.15c.774.232,1.55.457,2.318.707a2.776,2.776,0,0,1,.752.37.519.519,0,0,1-.018.95,3.382,3.382,0,0,1-.781.375q-5.164,1.729-10.334,3.443l-5.53,1.838a6.16,6.16,0,0,1-2.161.357" transform="translate(0 -0.001)" fill="#002f56"/>
    <path id="Path_1204" data-name="Path 1204" d="M77.525,109.137c.737.243,1.433.472,2.129.7,2.446.813,4.9,1.616,7.336,2.444a6.54,6.54,0,0,0,4.329-.023c3.026-1.024,6.061-2.024,9.092-3.032.085-.028.172-.048.3-.084v.337c0,2.286-.009,4.572.008,6.858a1.651,1.651,0,0,1-.5,1.223,7.859,7.859,0,0,1-2.579,1.652A20.219,20.219,0,0,1,92,120.706a22.781,22.781,0,0,1-4.143.148,19.488,19.488,0,0,1-8.3-2.133,5.676,5.676,0,0,1-1.643-1.249,1.544,1.544,0,0,1-.4-1.068c.012-2.313.006-4.627.006-6.94v-.328" transform="translate(-70.04 -98.608)" fill="#002f56"/>
    <path id="Path_1205" data-name="Path 1205" d="M347.112,90.889v.347c0,1.6-.005,3.2.007,4.807a1.759,1.759,0,0,0,.148.618c.29.723.633,1.427.887,2.162a2.211,2.211,0,0,1-.561,2.389,9.859,9.859,0,0,1-1.114.911.3.3,0,0,1-.287,0,11.037,11.037,0,0,1-1.3-1.146,2.124,2.124,0,0,1-.355-2.233c.259-.715.593-1.4.881-2.107a1.589,1.589,0,0,0,.138-.568q.017-2.2,0-4.4a.314.314,0,0,1,.262-.364c.416-.121.825-.266,1.3-.42" transform="translate(-311.149 -82.121)" fill="#002f56"/>
  </g>
</svg>
