<svg width="24" height="24" viewBox="0 0 24 24" fill="none" xmlns="http://www.w3.org/2000/svg">
<path d="M10.7448 19.99C12.3168 20.0402 13.8892 19.901 15.4278 19.5754C15.9389 19.4703 16.4279 19.2771 16.8726 19.0045C17.079 18.8671 17.256 18.6903 17.3934 18.4842C17.5309 18.2782 17.626 18.0469 17.6734 17.8039C17.7207 17.5609 17.7194 17.3109 17.6693 17.0684C17.6193 16.826 17.5216 16.5958 17.3819 16.3912C16.9543 15.8176 16.4065 15.3441 15.7766 15.0037C14.9497 14.5179 14.073 14.1219 13.1616 13.8224C13.0214 13.7835 12.896 13.7038 12.8015 13.5934C12.7069 13.483 12.6475 13.347 12.6309 13.2027C12.5931 12.9976 12.6013 12.7868 12.6549 12.5853C12.7084 12.3838 12.8061 12.1966 12.9407 12.0373C13.9237 10.9126 14.4812 9.47985 14.5163 7.98768C14.5534 7.22449 14.3846 6.46537 14.0274 5.78958C13.0275 3.94522 10.6344 3.586 9.03955 4.4388C8.47277 4.74324 8.00087 5.19755 7.67557 5.75195C7.35026 6.30634 7.18409 6.93943 7.19528 7.58184C7.1173 9.2581 7.70684 10.8971 8.83518 12.1409C8.9515 12.2677 9.03457 12.4213 9.07699 12.588C9.11941 12.7546 9.11987 12.9291 9.07831 13.096C9.03675 13.2629 8.95448 13.4169 8.83882 13.5443C8.72316 13.6717 8.57772 13.7686 8.41546 13.8262C8.07814 13.959 7.74082 14.0928 7.40954 14.2403C6.44919 14.6334 5.56015 15.1814 4.778 15.8625C4.51889 16.0774 4.31384 16.35 4.17932 16.6583C4.04479 16.9666 3.98453 17.3021 4.00338 17.6378C4.00409 17.8912 4.06732 18.1404 4.18748 18.3636C4.30764 18.5867 4.48102 18.7769 4.6923 18.9173C5.34308 19.3281 6.07506 19.5937 6.83818 19.6961C8.1277 19.9194 9.43579 20.018 10.7443 19.9906M18.0153 18.0162L18.0456 18.0535C18.3203 18.0129 18.6021 17.9817 18.8773 17.9296C19.4359 17.8544 19.9714 17.659 20.4469 17.357C20.5892 17.2661 20.71 17.1455 20.8011 17.0035C20.8921 16.8615 20.9512 16.7014 20.9743 16.5344C21.0198 16.2566 21.0047 15.9723 20.9301 15.7008C20.8555 15.4294 20.7231 15.1772 20.5419 14.9615C19.9939 14.3354 19.3242 13.8268 18.5735 13.4665C18.1505 13.2509 17.6852 13.1204 17.2473 12.9312C17.1953 12.9058 17.1496 12.8693 17.1135 12.8241C17.0774 12.779 17.0518 12.7264 17.0385 12.6701C17.0048 12.3682 17.0794 12.0641 17.249 11.8119C17.3929 11.6029 17.5363 11.394 17.6747 11.1817C18.3605 10.2338 18.6614 9.0619 18.5169 7.90157C18.4578 7.49833 18.3115 7.11275 18.0883 6.77155C17.865 6.43035 17.5701 6.14168 17.224 5.92555C16.8779 5.70941 16.4888 5.57099 16.0838 5.51986C15.6788 5.46873 15.2675 5.50612 14.8784 5.62944C14.9196 5.67605 14.9443 5.70786 14.9729 5.73583C15.5227 6.27609 15.8446 7.00582 15.8728 7.77543C16.006 9.31847 15.5918 10.8592 14.7026 12.1283C14.622 12.2387 14.5578 12.36 14.5119 12.4886C14.4626 12.5832 14.4368 12.6882 14.4366 12.7949C14.4364 12.9015 14.4618 13.0066 14.5107 13.1014C14.5597 13.1962 14.6307 13.2779 14.7178 13.3396C14.8049 13.4013 14.9055 13.4412 15.0113 13.456C15.6215 13.639 16.2048 13.9014 16.7463 14.2365C17.5226 14.672 18.1676 15.3074 18.6142 16.0764C18.7811 16.3052 18.8536 16.5892 18.8167 16.8698C18.7798 17.1504 18.6363 17.4061 18.4158 17.5841C18.2829 17.7283 18.1483 17.8714 18.0148 18.0151" fill="currentColor"/>
</svg>
