<svg width="24" height="24" viewBox="0 0 24 24" fill="none" xmlns="http://www.w3.org/2000/svg">
<path d="M20.7592 18.4093L16.1839 13.8324C16.8654 12.7354 17.2286 11.4705 17.2329 10.1791C17.2467 8.60206 16.7363 7.06514 15.7819 5.80967C14.8275 4.55421 13.4831 3.65133 11.9598 3.24286C10.4366 2.83438 8.82082 2.94345 7.36629 3.55292C5.91176 4.16239 4.70088 5.23775 3.92383 6.61009C3.14678 7.98242 2.84758 9.574 3.07324 11.1348C3.29889 12.6957 4.0366 14.1373 5.17052 15.2334C6.30443 16.3295 7.77029 17.0178 9.33788 17.1904C10.9055 17.3629 12.486 17.0099 13.8312 16.1868L18.4072 20.7604C18.5641 20.9144 18.7751 21.0006 18.9948 21.0006C19.2146 21.0006 19.4256 20.9144 19.5824 20.7604L20.7592 19.5845C20.9135 19.4278 21 19.2168 21 18.9969C21 18.777 20.9135 18.5659 20.7592 18.4093ZM10.1794 14.883C9.24938 14.883 8.34024 14.6072 7.56695 14.0905C6.79366 13.5738 6.19096 12.8394 5.83505 11.9802C5.47915 11.1209 5.38602 10.1754 5.56746 9.26329C5.7489 8.35113 6.19675 7.51326 6.85438 6.85563C7.51201 6.19801 8.34988 5.75016 9.26203 5.56872C10.1742 5.38728 11.1197 5.4804 11.9789 5.8363C12.8381 6.19221 13.5725 6.79491 14.0892 7.5682C14.6059 8.34149 14.8817 9.25063 14.8817 10.1807C14.8817 11.4278 14.3863 12.6238 13.5044 13.5057C12.6226 14.3875 11.4265 14.883 10.1794 14.883Z" fill="currentColor"/>
</svg>
