<svg width="48" height="42" viewBox="0 0 48 42" fill="none" xmlns="http://www.w3.org/2000/svg">
<path d="M24 13.4237C18.1017 13.4237 13.4237 18.2034 13.4237 24C13.4237 29.7966 18.2034 34.5763 24 34.5763C29.7966 34.5763 34.5763 29.8983 34.5763 24C34.5763 18.1017 29.8983 13.4237 24 13.4237ZM43.9322 5.69492H35.0847V3.9661C35.0847 1.72881 33.2542 0 31.1186 0H16.8814C14.6441 0 12.9153 1.83051 12.9153 3.9661V5.69492H3.9661C1.83051 5.69492 0 7.52542 0 9.76271V37.2203C0 39.4576 1.83051 41.1864 3.9661 41.1864H43.9322C46.1695 41.1864 47.8983 39.3559 47.8983 37.2203V9.76271C48 7.52542 46.1695 5.69492 43.9322 5.69492ZM24 37.4237C16.5763 37.4237 10.5763 31.4237 10.5763 24C10.5763 16.5763 16.5763 10.5763 24 10.5763C31.4237 10.5763 37.4237 16.5763 37.4237 24C37.4237 31.4237 31.4237 37.4237 24 37.4237ZM42.4068 11.4915C41.5932 11.4915 40.983 10.8814 40.983 10.0678C40.983 9.25424 41.5932 8.64407 42.4068 8.64407C43.2203 8.64407 43.8305 9.25424 43.8305 10.0678C43.8305 10.8814 43.2203 11.4915 42.4068 11.4915Z" fill="currentColor"/>
</svg>
