<svg width="48" height="49" viewBox="0 0 48 49" fill="none" xmlns="http://www.w3.org/2000/svg">
<path d="M44.8156 17.0759C44.8156 17.2842 44.7115 17.4924 44.7115 17.7007C44.5033 18.5336 44.0868 19.2625 43.5662 19.9914C43.0456 20.6161 42.3167 21.1367 41.5879 21.6573C40.6508 22.282 39.7137 22.6985 38.6725 23.0109C37.2148 23.5315 35.7571 23.948 34.1952 24.1562C33.8829 24.2603 33.5705 24.2603 33.2581 24.3645C32.5293 24.4686 31.6963 23.8438 31.5922 23.0109C31.4881 22.0738 32.1128 21.4491 33.0499 21.3449C33.6746 21.2408 34.2994 21.1367 34.9241 20.9284C35.4447 20.8243 36.0694 20.6161 36.59 20.512C37.7354 20.1996 38.8807 19.7831 39.8178 19.1584C40.3384 18.846 40.7549 18.5337 41.0672 18.1172C41.7961 17.2842 41.9002 16.5553 41.3796 15.6182C41.0672 15.0976 40.6508 14.6812 40.2343 14.3688H40.1302C40.2343 14.4729 40.2343 14.6812 40.3384 14.7853C40.4425 15.2018 40.6508 15.6182 40.7549 16.1389C40.859 16.5553 40.9631 16.9718 41.0672 17.2842C41.0672 17.4924 41.0672 17.5966 40.9631 17.7007C40.6508 18.1172 40.2343 18.5336 39.7137 18.846C38.7766 19.4707 37.8395 19.7831 36.9024 20.1996C35.8612 20.512 34.82 20.8243 33.7787 21.0326C33.3623 21.1367 33.0499 21.1367 32.6334 21.2408C32.5293 21.2408 32.4252 21.3449 32.321 21.2408C32.2169 21.2408 32.2169 21.0326 32.2169 20.9284C31.8004 19.7831 31.2798 18.7419 30.6551 17.7007C30.1345 16.8677 29.718 16.1389 29.0933 15.41C28.9892 15.3059 28.9892 15.2018 28.9892 14.9935C29.1974 14.4729 29.4056 14.0564 29.6139 13.5358V13.4317C28.9892 13.6399 28.4685 13.8482 28.0521 14.1605C27.3232 13.4317 26.5944 12.7028 25.8655 11.974L25.9696 11.8699C26.6985 11.4534 27.4273 11.0369 28.1562 10.8287C28.7809 10.6204 29.3015 10.4122 29.9262 10.3081C30.8633 10.0998 31.8004 9.89157 32.7375 9.89157C33.4664 9.89157 34.2993 9.78745 35.0282 9.89157C37.0065 9.99569 38.8807 10.5163 40.5466 11.4534C41.692 12.0781 42.6291 12.9111 43.462 13.9523C43.9826 14.577 44.295 15.41 44.3991 16.243C44.3991 16.4512 44.3991 16.5553 44.3991 16.7636C44.3991 16.6595 44.3991 16.5553 44.5033 16.4512C44.8156 16.4512 44.8156 16.7636 44.8156 17.0759Z" fill="currentColor"/>
<path d="M13.9957 15.3059C13.8915 15.3059 13.8915 15.3059 13.8915 15.41C12.3297 16.243 11.1844 17.4924 10.4555 19.1584C10.1432 19.9914 9.93492 20.9284 9.72668 21.8655C9.62256 22.282 9.62256 22.6985 9.62256 23.115C9.62256 23.948 8.99783 24.5727 8.16486 24.7809C7.22777 24.9892 6.39479 24.2603 6.18655 23.4274C6.18655 23.115 6.18655 22.9068 6.18655 22.5944C6.29067 21.0326 6.60304 19.5749 7.12364 18.1172C8.16486 15.5141 9.93493 13.5358 12.4338 12.2864C13.2668 11.8699 14.2039 11.5575 15.141 11.3493C15.3492 11.3493 15.4534 11.2451 15.6616 11.2451C15.6616 11.2451 15.7657 11.2451 15.8698 11.3493C16.1822 11.7658 16.4946 12.0781 16.9111 12.2864C17.6399 12.7028 18.3688 13.0152 19.0976 13.0152C20.7636 13.1193 22.1171 12.5987 23.2625 11.4534C23.3666 11.3493 23.4707 11.2451 23.679 11.2451C24.3037 11.141 24.7202 11.3493 25.2408 11.7658C26.282 12.5987 27.2191 13.6399 28.1562 14.6812C29.1974 15.9306 30.2386 17.3883 30.9675 18.846C31.3839 19.5749 31.6963 20.4078 32.0087 21.1367C32.0087 21.2408 32.0087 21.3449 31.9046 21.3449C30.9675 22.0738 30.8633 23.5315 31.6963 24.3645C31.9046 24.5727 32.1128 24.6768 32.4252 24.7809C32.5293 24.7809 32.5293 24.8851 32.6334 24.8851C32.5293 24.9892 32.5293 25.0933 32.5293 25.0933C32.1128 25.718 31.4881 25.9263 30.7592 25.8222C30.0304 25.718 29.6139 25.3015 29.4056 24.5727C29.1974 23.7397 28.9892 22.9068 28.6768 22.0738C28.1562 20.6161 27.3232 19.3666 26.4902 18.1172C26.282 17.9089 26.0738 17.5966 25.9696 17.3883C25.9696 17.4924 25.9696 17.5966 25.9696 17.5966C26.0738 18.3254 26.282 18.9501 26.3861 19.679C26.5944 20.7202 26.6985 21.6573 26.9067 22.6985C27.115 23.7397 27.2191 24.8851 27.4273 25.9263C27.6356 27.1757 27.7397 28.3211 27.8438 29.5705C27.9479 31.0282 28.0521 32.3818 28.0521 33.8395C28.0521 34.256 27.9479 34.6725 27.8438 35.089C27.7397 35.6096 27.4273 35.9219 27.0108 36.1302C26.6985 36.3384 26.282 36.4425 25.8655 36.6508C25.7614 36.6508 25.7614 36.6508 25.7614 36.7549C25.7614 37.1714 25.7614 37.5879 25.8655 38.0044C25.8655 38.7332 25.9696 39.3579 25.9696 40.0868C25.9696 40.6074 25.9696 41.128 25.9696 41.6486C25.9696 42.4816 25.9696 43.2104 25.9696 44.0434C25.9696 44.564 25.9696 45.0846 25.9696 45.7094C25.9696 46.6465 25.2408 47.5835 24.3037 47.8959C22.846 48.3124 21.3883 47.4794 21.18 46.0217C21.0759 45.7094 21.0759 45.397 21.0759 45.0846C21.0759 43.9393 21.0759 42.6898 21.0759 41.5445C21.0759 40.6074 20.9718 39.6703 20.9718 38.7332C20.9718 38.4209 20.9718 38.2126 20.9718 37.9002C20.9718 37.7961 20.8677 37.7961 20.7636 37.7961C20.5553 37.7961 20.3471 37.7961 20.1388 37.9002C19.6182 38.0044 19.0976 37.9002 18.577 37.7961C18.4729 37.7961 18.3688 37.7961 18.3688 38.0044C18.3688 39.1497 18.2646 40.1909 18.2646 41.3363C18.2646 42.794 18.2646 44.1475 18.2646 45.6052C18.2646 46.3341 18.0564 46.9588 17.4317 47.4794C16.4946 48.3124 15.2451 48.3124 14.308 47.5835C13.7874 47.1671 13.3709 46.5423 13.3709 45.8135C13.3709 44.7723 13.3709 43.731 13.3709 42.6898C13.3709 42.2733 13.3709 41.7527 13.3709 41.3363C13.3709 40.3992 13.4751 39.4621 13.4751 38.525C13.4751 38.0044 13.4751 37.4838 13.5792 37.0673C13.5792 36.9632 13.5792 36.859 13.4751 36.859C13.1627 36.6508 12.7462 36.5467 12.4338 36.3384C11.9132 36.0261 11.6009 35.6096 11.4967 34.9848C11.3926 34.256 11.3926 33.5271 11.3926 32.7983C11.3926 31.7571 11.4967 30.7159 11.6009 29.7788C11.705 28.3211 11.9132 26.8634 12.1215 25.4057C12.2256 24.5727 12.3297 23.7397 12.538 23.0109C12.7462 21.7614 12.9544 20.8243 13.0586 19.7831C13.2668 18.4295 13.5792 16.9718 13.8915 15.6182C13.8915 15.5141 13.8915 15.41 13.9957 15.3059Z" fill="currentColor"/>
<path d="M41.9002 22.0738C41.9002 22.3861 42.0043 22.6985 42.0043 22.9068C42.1085 24.8851 42.2126 26.9675 42.1085 28.9458C42.1085 29.6746 42.0043 30.4035 42.0043 31.1323C42.0043 31.4447 42.0043 31.653 42.0043 31.9653C42.0043 32.2777 41.9002 32.4859 41.5879 32.59C41.0672 32.9024 40.5466 33.0065 39.9219 33.1107C39.5054 33.2148 39.5054 33.1107 39.5054 33.5271C39.5054 35.2972 39.5054 37.0673 39.5054 38.8373C39.5054 41.128 39.5054 43.4187 39.5054 45.7094C39.5054 46.1258 39.5054 46.4382 39.2972 46.8547C38.9848 47.6877 37.9436 48.2083 37.0065 48C36.1735 47.6877 35.6529 47.0629 35.5488 46.1258C35.5488 45.9176 35.5488 45.8135 35.5488 45.6052C35.5488 41.7527 35.5488 37.7961 35.5488 33.9436C35.5488 33.8395 35.5488 33.7354 35.5488 33.6313C34.9241 33.6313 34.4035 33.6313 33.7787 33.6313C33.7787 33.8395 33.7787 34.0477 33.7787 34.256C33.7787 36.2343 33.7787 38.2126 33.7787 40.1909C33.7787 41.8569 33.7787 43.6269 33.7787 45.2929C33.7787 45.6052 33.7787 45.9176 33.7787 46.3341C33.7787 47.1671 33.154 47.8959 32.321 48.1041C31.1757 48.4165 30.0304 47.5835 29.9262 46.4382C29.9262 46.3341 29.9262 46.23 29.9262 46.0217C29.9262 41.8569 29.9262 37.692 29.9262 33.423C29.9262 33.3189 29.9262 33.2148 29.718 33.2148C29.3015 33.1107 28.885 33.0065 28.4685 32.9024C28.3644 32.9024 28.2603 32.7983 28.3644 32.6942C28.3644 31.653 28.2603 30.6117 28.1562 29.5705C28.0521 28.5293 27.9479 27.4881 27.8438 26.551C27.7397 25.8222 27.6356 25.1974 27.5315 24.4686C27.5315 24.1562 27.5315 23.8438 27.5315 23.5315C27.5315 22.8026 27.6356 22.0738 27.7397 21.2408C27.7397 21.2408 27.7397 21.2408 27.7397 21.1367C27.7397 21.2408 27.8438 21.2408 27.8438 21.3449C28.1562 22.1779 28.5727 23.0109 28.7809 23.8438C28.885 24.0521 28.885 24.2603 28.9892 24.4686C29.1974 25.5098 30.1345 26.3428 31.2798 26.2386C32.1128 26.1345 32.7375 25.718 33.0499 24.9892C33.0499 24.8851 33.154 24.8851 33.2581 24.8851C34.5076 24.6768 35.6529 24.4686 36.9024 24.1562C38.1518 23.8438 39.4013 23.4274 40.6508 22.8026C41.0672 22.5944 41.3796 22.3861 41.7961 22.1779C41.7961 22.0738 41.7961 22.0738 41.9002 22.0738Z" fill="currentColor"/>
<path d="M19.8265 3.33191C22.3254 3.33191 24.5119 5.51847 24.4078 8.1215C24.3037 10.7245 22.2213 12.5987 19.7223 12.4946C17.1193 12.3905 15.141 10.4122 15.141 7.70502C15.2451 5.31022 17.3275 3.33191 19.8265 3.33191Z" fill="currentColor"/>
<path d="M39.0889 4.37313C39.1931 6.76792 37.1106 8.74623 34.9241 8.74623C32.2169 8.74623 30.4469 6.55968 30.4469 4.47725C30.4469 1.97834 32.5293 0.104149 34.7158 0.104149C37.2148 2.71308e-05 39.1931 2.08246 39.0889 4.37313Z" fill="currentColor"/>
<path d="M5.77007 22.0738C5.77007 22.1779 5.77007 22.282 5.77007 22.3861C5.77007 22.8026 5.66594 23.115 5.77007 23.5315C5.87419 23.7397 5.97831 23.948 6.08243 24.1562C6.08243 24.1562 6.08243 24.2603 6.08243 24.3645C5.87419 24.6768 5.87419 25.0933 5.87419 25.5098C5.87419 32.6942 5.87419 39.7744 5.87419 46.9588C5.87419 47.4794 5.56182 47.7918 5.14534 47.8959C4.72885 48 4.31236 47.8959 4.10412 47.4794C4.10412 47.3753 4 47.1671 4 47.0629C4 43.2104 4 39.3579 4 35.6096C4 32.1736 4 28.7376 4 25.3015C4 23.948 4.62473 23.0109 5.56182 22.1779C5.66594 22.0738 5.66594 22.0738 5.77007 22.0738Z" fill="currentColor"/>
<path d="M17.2234 3.64428C17.3275 2.49894 18.2646 1.24948 19.8265 1.35361C21.3883 1.35361 22.2213 2.70719 22.3254 3.64428C21.4924 3.12367 20.6594 2.91543 19.7223 2.91543C18.8894 2.91543 18.0564 3.12367 17.2234 3.64428Z" fill="currentColor"/>
<path d="M10.039 22.282C10.4555 22.6985 10.872 23.0109 11.0803 23.5315C11.3926 24.0521 11.4967 24.6768 11.4967 25.3015C11.4967 25.8222 11.1844 26.1345 10.5597 26.2386C10.039 26.2386 9.62256 25.8222 9.62256 25.4057C9.62256 25.1974 9.51844 24.8851 9.51844 24.6768V24.5727C9.8308 24.1562 10.039 23.6356 10.039 23.115C10.039 22.6985 10.039 22.4903 10.039 22.282Z" fill="currentColor"/>
</svg>
