<svg width="49" height="48" viewBox="0 0 49 48" fill="none" xmlns="http://www.w3.org/2000/svg">
<path d="M18.8081 2.73987L2.73988 18.8081C0.38594 21.162 0.38594 24.9488 2.73988 27.3028L19.8316 44.3945C22.1855 46.7484 25.9723 46.7484 28.3262 44.3945C29.452 43.2687 30.0661 41.7335 30.0661 40.1983C30.0661 38.6631 29.452 37.1279 28.3262 36.0021L21.9808 29.6567H43.064C46.339 29.6567 49 26.9957 49 23.6183C49 20.3433 46.339 17.6823 43.064 17.6823H20.9574L27.3028 11.3369C29.6567 8.98294 29.6567 5.19616 27.3028 2.84221C24.8465 0.385924 21.0597 0.385924 18.8081 2.73987Z" fill="currentColor"/>
</svg>
