<svg width="49" height="48" viewBox="0 0 49 48" fill="none" xmlns="http://www.w3.org/2000/svg">
<path d="M30.2942 44.2921L46.2601 28.3262C48.6141 25.9723 48.6141 22.1855 46.2601 19.8316L29.2708 2.73988C26.9168 0.38594 23.1301 0.38594 20.7761 2.73988C19.6503 3.86568 19.0362 5.40087 19.0362 6.93605C19.0362 8.47123 19.6503 10.0064 20.7761 11.1322L27.1215 17.4776H5.93603C2.66098 17.58 0 20.2409 0 23.516C0 26.7911 2.66098 29.452 5.93603 29.452H28.0426L21.7996 35.7975C19.4456 38.1514 19.4456 41.9382 21.7996 44.2921C24.1535 46.6461 27.9403 46.6461 30.2942 44.2921Z" fill="currentColor"/>
</svg>
