<svg width="48" height="48" viewBox="0 0 48 48" fill="none" xmlns="http://www.w3.org/2000/svg">
<path fill-rule="evenodd" clip-rule="evenodd" d="M45.7627 1H28.8814C28.8814 1 28.8814 1 28.3729 1C28.3729 1 26.6441 1.20339 25.4237 1.81356C24.1017 2.42373 24.5085 2.32203 24.1017 2.42373C23.6949 2.32203 24 2.42373 22.7797 1.81356C21.4576 1.20339 19.7288 1 19.7288 1H2.13559C1.01695 1 0 2.01695 0 3.13559V43.8136C0 45.0339 1.01695 45.9492 2.13559 45.9492H20.5424C21.0508 46.0508 22.2712 46.2542 23.2881 46.661C24.6102 47.2712 24.2034 47.1695 24.6102 47.2712C25.0169 47.1695 24.7119 47.2712 25.9322 46.661C26.8475 46.2542 28.0678 46.0508 28.678 45.9492H45.7627C46.983 45.9492 47.8983 44.9322 47.8983 43.8136V3.13559C48 2.01695 46.983 1 45.7627 1ZM3.35593 37.9153C3.35593 23.9831 3.35593 3.23729 3.35593 3.23729C3.35593 3.23729 5.38983 3.0339 8.13559 2.9322V22.7627L13.2203 17.678L18.3051 22.7627V3.23729C20.339 3.54237 22.0678 4.15254 23.0847 4.9661C23.0847 38.8305 23.0847 38.8305 23.0847 38.8305C23.0847 38.8305 15.7627 36.5932 3.35593 37.9153ZM44.6441 37.9153C32.2373 36.4915 24.9153 38.8305 24.9153 38.8305C24.9153 38.8305 24.9153 38.8305 24.9153 4.9661C29.3898 1.40678 44.7458 3.23729 44.7458 3.23729C44.7458 3.23729 44.6441 23.9831 44.6441 37.9153Z" fill="currentColor"/>
</svg>
