<svg width="48" height="48" viewBox="0 0 48 48" fill="none" xmlns="http://www.w3.org/2000/svg">
<path d="M43.5717 2.36403H36.6852L36.5824 26.2099L32.2655 22.6124L27.6403 26.0043V2.36403H12.4283V47.6917H11.5032V45.0193H7.28908V44.197H11.5032V42.6552H7.28908V41.7302H11.5032V40.0857H7.28908V39.1606H11.5032V37.5161H7.28908V36.591H11.5032V34.9465H7.28908V34.0214H11.5032V32.4797H7.28908V31.5546H11.5032V30.0128H7.28908V29.0878H11.5032V27.546H7.28908V26.621H11.5032V25.0792H7.28908V24.1542H11.5032V22.6124H7.28908V21.5846H11.5032V20.0428H7.28908V19.1178H11.5032V17.4732H7.28908V16.5482H11.5032V15.0064H7.28908V14.0814H11.5032V12.5396H7.28908V11.6146H11.5032V9.97002H7.28908V9.04497H11.5032V7.50321H7.28908V6.57816H11.5032V4.93362H7.28908V4.00857H11.5032V2.46681H6.67238V0.925054H41.0021H43.0578C42.6467 0.411135 41.9272 0 41.1049 0H6.46681C5.13062 0 4 1.13062 4 2.46681V45.4304C4 46.7666 5.13062 47.8972 6.46681 47.8972H41.1049C42.4411 47.8972 43.5717 46.7666 43.5717 45.4304V2.46681C43.5717 2.46681 43.5717 2.46681 43.5717 2.36403Z" fill="currentColor"/>
</svg>
