<svg width="49" height="48" viewBox="0 0 49 48" fill="none" xmlns="http://www.w3.org/2000/svg">
<path fill-rule="evenodd" clip-rule="evenodd" d="M1.95835e-05 22.2801C1.95835e-05 22.2801 13.6543 27.6368 23.9475 27.6368C35.186 27.6368 48.1051 22.1751 48.1051 22.1751V15.663C48.1051 12.302 44.849 12.407 44.849 12.407H31.93V9.151C31.93 5.89499 28.779 6.00002 28.779 6.00002H19.011C15.965 6.00002 15.86 9.25604 15.86 9.25604V12.5121H3.151C-0.105013 12.5121 1.95835e-05 15.7681 1.95835e-05 15.7681V22.2801ZM27.2035 26.0613H20.6915C20.6915 26.0613 20.6915 25.3261 20.6915 24.4858C20.6915 23.6455 21.4267 22.9103 22.267 22.9103H25.523C26.3633 22.9103 27.0985 23.6455 27.0985 24.4858C27.2035 25.3261 27.2035 26.0613 27.2035 26.0613ZM19.116 10.7265C19.116 9.25604 20.6915 9.151 20.6915 9.151H27.2035C28.884 9.151 28.779 10.9366 28.779 10.9366V12.407H19.116V10.7265ZM48 39.6105V24.0657C48 24.0657 37.6018 29.2123 23.8425 29.2123C11.1335 29.3173 1.95835e-05 23.9606 1.95835e-05 23.9606V39.6105C1.95835e-05 42.8665 3.04597 42.8665 3.04597 42.8665H44.744C48.2101 42.8665 48 39.6105 48 39.6105ZM27.0985 32.4683C27.0985 33.3086 26.3633 34.0438 25.523 34.0438H22.267C21.4267 34.0438 20.6915 33.4136 20.6915 32.4683C20.6915 31.628 20.6915 30.7878 20.6915 30.7878H27.2035C27.2035 30.7878 27.0985 31.628 27.0985 32.4683Z" fill="currentColor"/>
</svg>
