<svg width="48" height="48" viewBox="0 0 48 48" fill="none" xmlns="http://www.w3.org/2000/svg">
<path d="M39.8541 31.9255C37.5543 23.9175 35.2263 15.9176 32.9675 7.89834C32.5348 6.36191 31.7609 5.32421 30.1665 5.00244H29.9654C27.2538 6.05945 26.7968 6.99016 27.6133 9.81446C28.8607 14.1304 30.1092 18.4459 31.3587 22.7607C32.8597 27.9613 34.3407 33.1675 35.8634 38.3608C35.9561 38.7147 36.1175 39.0469 36.3385 39.3384C36.5595 39.6299 36.8358 39.875 37.1516 40.0597C37.4673 40.2444 37.8163 40.3651 38.1787 40.415C38.5412 40.4648 38.9098 40.4428 39.2637 40.3501C39.6176 40.2575 39.9498 40.096 40.2412 39.875C40.5327 39.654 40.7779 39.3777 40.9626 39.062C41.1473 38.7463 41.268 38.3972 41.3179 38.0348C41.3677 37.6724 41.3457 37.3037 41.253 36.9499C40.8388 35.2606 40.3312 33.5987 39.8517 31.9279" fill="currentColor"/>
<path d="M26.4186 10.9753C23.1943 15.6171 18.938 19.4485 13.9839 22.1687C13.8796 22.213 13.7855 22.2782 13.7075 22.3604C13.6296 22.4426 13.5693 22.54 13.5306 22.6465C13.4919 22.753 13.4755 22.8663 13.4825 22.9793C13.4895 23.0924 13.5197 23.2029 13.5712 23.3038C14.5462 26.6405 15.5259 29.9804 16.4567 33.326C16.6352 33.9695 16.92 34.1304 17.5579 34.1014C21.2132 33.8897 24.879 34.2611 28.4175 35.2019C30.3908 35.7505 32.3206 36.4568 34.3598 37.1212L26.7661 10.643C26.6416 10.7441 26.5248 10.8552 26.4186 10.9753Z" fill="currentColor"/>
<path d="M12.3325 22.8943L6.64691 24.5586L9.91204 35.995L15.6395 34.3556L12.3325 22.8943Z" fill="currentColor"/>
<path d="M4.68974 25.1249C2.39313 25.758 1.5871 27.1134 2.19605 29.4028C2.65939 31.1457 3.15008 32.8814 3.66813 34.6098C3.84748 35.3198 4.28436 35.9377 4.89388 36.3435C5.50339 36.7494 6.24202 36.9142 6.96624 36.8058C7.54622 36.7109 8.11494 36.5484 8.89684 36.369L5.58425 24.8804L4.68974 25.1217" fill="currentColor"/>
<path d="M10.199 37.0858C10.7806 39.1137 11.3147 41.0033 11.8714 42.8864C11.9257 43.1763 12.0705 43.4416 12.2849 43.6442C13.3499 44.3344 14.275 43.4833 15.2379 43.2476C15.6465 43.147 16.2466 42.6121 16.249 42.2718C16.2651 40.0195 16.142 37.7671 16.0592 35.3909L10.1998 37.0866" fill="currentColor"/>
<path d="M45.0829 28.2364C43.9311 27.9874 42.7648 27.8106 41.591 27.7071C41.3584 27.7512 41.1407 27.8531 40.9579 28.0036C40.7752 28.154 40.6332 28.348 40.5452 28.5678C40.5558 28.7902 40.6239 29.0061 40.7429 29.1943C40.8619 29.3826 41.0277 29.5367 41.2241 29.6417C42.3857 29.9635 43.5972 30.1123 45.1175 30.385C45.3347 30.1436 45.8029 29.8307 45.9421 29.4108C46.1536 28.7729 45.72 28.3514 45.0789 28.2364" fill="currentColor"/>
<path d="M37.2204 15.0416C37.8896 15.1703 40.9802 12.387 41.0059 11.5118C40.8636 11.3388 40.6761 10.9487 40.3688 10.7934C40.2112 10.7289 40.0408 10.7015 39.8709 10.7135C39.7009 10.7255 39.5361 10.7765 39.3891 10.8626C38.3881 11.6557 37.4318 12.5035 36.5245 13.4022C36.4212 13.5573 36.3552 13.7343 36.3318 13.9192C36.3083 14.1041 36.3281 14.292 36.3894 14.468C36.4796 14.6169 36.6003 14.745 36.7437 14.8438C36.8871 14.9425 37.0499 15.0096 37.2212 15.0408" fill="currentColor"/>
<path d="M40.1342 21.1728C40.2025 21.5042 40.7069 21.7455 41.019 22.0263C42.4283 21.5943 43.6985 21.2645 44.9108 20.7867C45.0736 20.6557 45.2006 20.4855 45.2796 20.292C45.3587 20.0985 45.3873 19.8882 45.3629 19.6806C45.2824 19.354 44.7081 18.8601 44.4523 18.9148C43.1396 19.1932 41.8501 19.5716 40.5951 20.0466C40.4304 20.1809 40.3019 20.3544 40.2214 20.5511C40.1409 20.7478 40.1109 20.9615 40.1342 21.1728Z" fill="currentColor"/>
</svg>
