<svg width="48" height="48" viewBox="0 0 48 48" fill="none" xmlns="http://www.w3.org/2000/svg">
<path d="M2 46.0719C2 47.1882 2.91332 48 3.92812 48H44.2156C45.3319 48 46.1438 47.0867 46.1438 46.0719V13.5983H2V46.0719ZM34.5751 17.4545H42.2875V25.167H34.5751V17.4545ZM34.5751 27.0951H42.2875V34.8076H34.5751V27.0951ZM34.5751 36.6342H42.2875V44.2452H34.5751V36.6342ZM24.9345 17.4545H32.6469V25.167H24.9345V17.4545ZM24.9345 27.0951H32.6469V34.8076H24.9345V27.0951ZM24.9345 36.6342H32.6469V44.2452H24.9345V36.6342ZM15.1924 17.4545H22.9049V25.167H15.1924V17.4545ZM15.1924 27.0951H22.9049V34.8076H15.1924V27.0951ZM15.1924 36.6342H22.9049V44.2452H15.1924V36.6342ZM5.5518 17.4545H13.2643V25.167H5.5518V17.4545ZM5.5518 27.0951H13.2643V34.8076H5.5518V27.0951ZM5.5518 36.6342H13.2643V44.2452H5.5518V36.6342ZM44.2156 5.88584H36.6047V0H32.8499V5.88584H15.3953V0H11.5391V5.88584H3.92812C2.91332 5.88584 2 6.69767 2 7.81395V10.9598H46.1438V7.81395C46.1438 6.69767 45.3319 5.88584 44.2156 5.88584Z" fill="currentColor"/>
</svg>
