<svg width="48" height="48" viewBox="0 0 48 48" fill="none" xmlns="http://www.w3.org/2000/svg">
<path d="M10.7974 37.6862C10.7707 37.6531 10.7465 37.6188 10.7185 37.5882C9.52485 36.2961 8.55037 34.8177 7.83359 33.2113C6.92445 31.1768 6.3448 29.0106 6.11638 26.794C5.82679 24.4426 5.92995 22.0595 6.42166 19.742C7.18224 16.1538 8.9756 12.8664 11.5809 10.2846C14.4712 7.33429 18.3316 5.52969 22.4489 5.2042C25.4717 4.9509 28.5079 5.49751 31.2525 6.78912C34.2264 8.16074 36.7985 10.2728 38.7223 12.9232C40.6462 15.5736 41.8574 18.6734 42.2401 21.926C42.5289 24.4206 42.3126 26.9478 41.6041 29.3571C40.7138 32.4726 39.0894 35.3293 36.8671 37.6874C34.0216 40.8656 30.1496 42.9426 25.9279 43.5552C24.0295 43.8357 22.0934 43.7174 20.2433 43.208C18.9569 42.8867 17.7556 42.2899 16.7224 41.4589C15.9327 40.8447 15.3493 40.0041 15.0501 39.0494C14.751 38.0948 14.7504 37.0715 15.0484 36.1165C15.1273 35.8036 15.2418 35.4996 15.3397 35.1918C15.8108 36.6494 16.7775 37.896 18.072 38.7152L21.1935 30.1457C20.9247 30.0436 20.6975 29.8549 20.5478 29.6094C20.3981 29.3639 20.3344 29.0755 20.3667 28.7898C20.3652 28.4247 20.3967 28.0603 20.4608 27.7009C20.9825 24.8424 21.8897 22.0678 23.1575 19.4532C23.4893 18.7835 23.8805 18.145 24.3264 17.5452C24.4957 17.2716 24.754 17.0646 25.058 16.9592C25.362 16.8538 25.693 16.8563 25.9953 16.9665L29.1753 8.17561C28.6864 8.14544 28.1959 8.14884 27.7074 8.18579C26.0955 8.46692 24.598 9.20461 23.3928 10.3113C21.6472 11.8517 20.2046 13.7046 19.1392 15.7746C17.3256 19.0978 16.0107 22.6696 15.2367 26.3755C14.7674 28.4309 14.6385 30.5493 14.8551 32.6465C14.8955 32.9527 14.8281 33.2635 14.6643 33.5254C13.8468 34.8634 13.2792 36.3387 12.989 37.8795C12.7474 39.109 12.8964 40.3833 13.4152 41.5238C14.0912 42.8541 15.2022 43.913 16.5634 44.5245C18.4102 45.4142 20.424 45.904 22.4731 45.9619C26.2619 46.1644 30.0316 45.3002 33.3539 43.4674C36.5314 41.7519 39.2117 39.2442 41.1347 36.1878C44.1042 31.5552 45.2685 25.9932 44.4063 20.5586C44.0452 18.005 43.2334 15.5358 42.0086 13.2662C40.2099 9.80277 37.4833 6.90791 34.1336 4.90528C31.7736 3.4429 29.127 2.50431 26.373 2.15297C23.6189 1.80164 20.8215 2.04575 18.1699 2.8688C12.9633 4.40302 8.57807 7.94014 5.97646 12.704C4.32149 15.568 3.33609 18.7695 3.09409 22.0685C2.8924 24.3755 3.00236 26.6991 3.42099 28.9767C3.64473 30.4161 4.1545 31.7961 4.92023 33.0352C5.68596 34.2744 6.69213 35.3476 7.87938 36.1916C8.77637 36.8254 9.75884 37.3287 10.7974 37.6862ZM29.8393 8.45291L26.6478 17.2107C26.7445 17.2514 26.8132 17.2857 26.8857 17.3112L28.9896 18.0744C29.1246 18.1364 29.2716 18.1682 29.4202 18.1674C29.5688 18.1666 29.7154 18.1332 29.8497 18.0697C29.984 18.0062 30.1028 17.914 30.1977 17.7997C30.2926 17.6853 30.3613 17.5516 30.399 17.4078C30.6763 16.6446 30.951 15.8916 31.2271 15.1335C31.7656 13.658 32.3036 12.1824 32.8412 10.7069C32.9005 10.5753 32.931 10.4325 32.9308 10.2882C32.9306 10.1438 32.8997 10.0012 32.8402 9.86966C32.7806 9.73817 32.6938 9.62085 32.5854 9.52549C32.477 9.43014 32.3496 9.35893 32.2116 9.3166C32.0424 9.24918 31.8694 9.1894 31.7028 9.12834L29.8393 8.45291ZM21.8486 30.3772L21.4415 31.4953C20.563 33.902 19.6845 36.3086 18.8059 38.7152C18.7563 38.8501 18.6914 38.9696 18.9051 39.037C19.6442 39.2914 20.3743 39.5726 21.1121 39.8282C21.2413 39.8825 21.3804 39.9088 21.5205 39.9057C21.6606 39.9025 21.7984 39.8698 21.925 39.8098C22.0517 39.7498 22.1642 39.6638 22.2554 39.5574C22.3465 39.451 22.4142 39.3266 22.454 39.1922C23.2656 36.9874 24.0712 34.7767 24.8709 32.56C24.9642 32.3123 24.9556 32.0378 24.8469 31.7965C24.7382 31.5552 24.5382 31.3668 24.2908 31.2727C24.0987 31.1913 23.9003 31.1252 23.7044 31.0552L21.8447 30.3836" fill="currentColor"/>
<path d="M10.7974 37.6862C9.75877 37.3283 8.77629 36.8248 7.87938 36.1905C6.69214 35.3465 5.68596 34.2733 4.92023 33.0341C4.1545 31.795 3.64473 30.415 3.421 28.9757C3.00241 26.698 2.89245 24.3744 3.09409 22.0674C3.33633 18.7688 4.32171 15.5677 5.97646 12.704C8.57807 7.94014 12.9633 4.40302 18.1699 2.8688C20.8219 2.0466 23.6196 1.80368 26.3737 2.15611C29.1278 2.50855 31.7741 3.44831 34.1336 4.91182C37.4833 6.91441 40.2099 9.80927 42.0086 13.2727C43.2334 15.5424 44.0452 18.0115 44.4063 20.5651C45.2684 25.9998 44.1041 31.5617 41.1347 36.1943C39.2109 39.2485 36.5307 41.7537 33.3539 43.4674C30.0296 45.3067 26.2556 46.1756 22.4617 45.9748C20.4125 45.9169 18.3987 45.4271 16.5519 44.5374C15.1907 43.9259 14.0798 42.867 13.4037 41.5367C12.8849 40.3962 12.736 39.1219 12.9776 37.8924C13.2678 36.3516 13.8354 34.8763 14.6528 33.5383C14.8166 33.2764 14.8841 32.9656 14.8436 32.6594C14.6271 30.5623 14.756 28.4438 15.2252 26.3884C15.9993 22.6825 17.3142 19.1107 19.1277 15.7875C20.1931 13.7175 21.6357 11.8646 23.3813 10.3242C24.5866 9.21757 26.0841 8.47989 27.696 8.19869C28.1845 8.16174 28.6749 8.15834 29.1639 8.18851L25.9839 16.9794C25.6815 16.8692 25.3505 16.8667 25.0466 16.9721C24.7426 17.0775 24.4842 17.2845 24.315 17.5581C23.8691 18.1579 23.4778 18.7965 23.146 19.4661C21.8782 22.0807 20.971 24.8553 20.4494 27.7138C20.3853 28.0732 20.3538 28.4376 20.3552 28.8027C20.3229 29.0884 20.3866 29.3768 20.5364 29.6223C20.6861 29.8678 20.9132 30.0565 21.182 30.1586L18.0605 38.7243C16.7654 37.905 15.7982 36.6579 15.327 35.1996C15.229 35.5074 15.1158 35.8114 15.037 36.1243C14.739 37.0794 14.7396 38.1026 15.0387 39.0573C15.3378 40.0119 15.9212 40.8526 16.7109 41.4668C17.7444 42.2969 18.9456 42.8927 20.2318 43.2132C22.082 43.7227 24.018 43.841 25.9164 43.5605C30.1381 42.9478 34.0102 40.8709 36.8557 37.6927C39.0779 35.3345 40.7023 32.4779 41.5927 29.3623C42.3011 26.9531 42.5174 24.4259 42.2287 21.9313C41.846 18.6787 40.6347 15.5788 38.7109 12.9285C36.787 10.2781 34.215 8.16601 31.2411 6.79439C28.5004 5.50297 25.4684 4.95446 22.4489 5.2042C18.3316 5.52969 14.4712 7.33429 11.5809 10.2846C8.9756 12.8664 7.18224 16.1538 6.42166 19.742C5.92995 22.0595 5.82679 24.4426 6.11638 26.794C6.3448 29.0106 6.92445 31.1768 7.83359 33.2113C8.5511 34.8179 9.52645 36.2965 10.721 37.5884C10.749 37.6189 10.7732 37.6533 10.7999 37.6864" fill="currentColor"/>
<path d="M29.8342 8.45163L31.6939 9.12834C31.8656 9.19067 32.0373 9.25554 32.2027 9.3166C32.3407 9.35893 32.4681 9.43014 32.5765 9.52549C32.6849 9.62085 32.7717 9.73816 32.8313 9.86966C32.8908 10.0012 32.9217 10.1438 32.9219 10.2882C32.9221 10.4325 32.8916 10.5753 32.8323 10.7069C32.2964 12.1833 31.7584 13.6588 31.2182 15.1335C30.9421 15.8967 30.6674 16.651 30.3901 17.4078C30.3524 17.5516 30.2837 17.6853 30.1888 17.7997C30.0939 17.914 29.9751 18.0062 29.8408 18.0697C29.7065 18.1332 29.5599 18.1666 29.4113 18.1674C29.2627 18.1682 29.1157 18.1364 28.9807 18.0744L26.8768 17.3112C26.8056 17.2845 26.7356 17.2514 26.6389 17.2107L29.8304 8.45291" fill="currentColor"/>
<path d="M21.8486 30.376L23.7082 31.0476C23.9041 31.1188 24.1026 31.185 24.2946 31.2651C24.542 31.3592 24.742 31.5475 24.8507 31.7888C24.9594 32.0301 24.968 32.3047 24.8747 32.5524C24.0724 34.7648 23.2668 36.9755 22.4578 39.1846C22.418 39.3189 22.3503 39.4433 22.2592 39.5498C22.168 39.6562 22.0555 39.7422 21.9288 39.8022C21.8022 39.8622 21.6644 39.8949 21.5243 39.898C21.3842 39.9012 21.2451 39.8748 21.1159 39.8206C20.3768 39.5662 19.648 39.2851 18.909 39.0294C18.6965 38.9557 18.7614 38.8424 18.8097 38.7076C19.6883 36.3018 20.5668 33.8952 21.4453 31.4877L21.8524 30.3696" fill="currentColor"/>
</svg>
