<svg width="49" height="49" viewBox="0 0 49 49" fill="none" xmlns="http://www.w3.org/2000/svg">
<path d="M48.2759 34L39.8966 26.5518C39.8966 26.5518 38.0345 23.8621 35.8621 26.5518C33.6897 29.2414 33.7931 29.9655 31.6207 27.4828C29.5518 25.2069 24.2759 19.9311 22.2069 18.069C19.7242 15.8966 20.4483 16 23.138 13.8276C25.8276 11.6552 23.138 9.79313 23.138 9.79313L15.6897 1.41382C13.5173 -0.965491 9.17246 7.41382 9.06901 9.27589C8.24142 18.069 27.4828 37 37.9311 40.2069C37.7242 41.4483 37.3104 43 36.6897 44.2414C35.8621 45.8966 34.7242 47.0345 32.8621 47.0345C31.8276 47.0345 30.4828 46.7242 28.7242 45.6897C26.6552 44.6552 22.8276 40.2069 19 36.069C15.069 31.9311 11.0345 27.8966 7.10349 27.7931C6.79315 27.7931 6.37935 27.7931 6.06901 27.8966C2.55177 28.6207 0.896596 31.1035 1.00004 33.6897C1.00004 36.2759 2.34487 38.8621 4.31039 40.6207L5.75867 39.1724C4.10349 37.7242 3.06901 35.4483 3.06901 33.6897C3.17246 31.9311 3.79315 30.5862 6.58625 29.8621C6.79315 29.8621 7.00004 29.7586 7.20694 29.7586C9.58625 29.6552 13.8276 33.2759 17.6552 37.4138C21.5863 41.5518 25.1035 45.8966 27.8966 47.4483C29.7587 48.4828 31.5173 49 32.9656 49C34.8276 49 36.2759 48.1724 37.3104 47.0345C38.9656 45.1724 39.5863 42.5862 40 40.6207C40.2069 40.6207 40.3104 40.6207 40.5173 40.6207C42.2759 40.5173 50.7587 36.2759 48.2759 34Z" fill="currentColor"/>
</svg>
