<svg width="48" height="48" viewBox="0 0 48 48" fill="none" xmlns="http://www.w3.org/2000/svg">
<path fill-rule="evenodd" clip-rule="evenodd" d="M43.5159 7H4.48408C2.03822 7 0 9.03822 0 11.4841V37.3694C0 39.8153 2.03822 41.8535 4.48408 41.8535H43.5159C45.9618 41.8535 48 39.8153 48 37.3694V11.4841C48 9.03822 45.9618 7 43.5159 7ZM18.242 28.8089H21.1975V33.1911H18.242V28.8089ZM12.2293 28.8089H15.2866V33.1911H12.2293V28.8089ZM6.21656 28.8089H9.17197V33.1911H6.21656V28.8089ZM22.828 37.879H6.42038V35.3312H22.828V37.879ZM27.3121 33.1911H24.3567V28.8089H27.3121V33.1911ZM33.3248 33.1911H30.3694V28.8089H33.3248V33.1911ZM35.5669 20.6561C33.5287 20.6561 31.8981 19.0255 31.8981 16.9873C31.8981 14.949 33.5287 13.3185 35.5669 13.3185C37.6051 13.3185 39.2357 14.949 39.2357 16.9873C39.2357 18.9236 37.6051 20.6561 35.5669 20.6561ZM41.2739 20.6561C40.5605 20.6561 39.949 20.4522 39.4395 20.1465C40.1529 19.2293 40.5605 18.2102 40.5605 16.9873C40.5605 15.7643 40.1529 14.6433 39.4395 13.828C39.949 13.5223 40.5605 13.3185 41.2739 13.3185C43.3121 13.3185 44.9427 14.949 44.9427 16.9873C44.9427 18.9236 43.3121 20.6561 41.2739 20.6561Z" fill="currentColor"/>
</svg>
