<svg width="48" height="48" viewBox="0 0 48 48" fill="none" xmlns="http://www.w3.org/2000/svg">
<path fill-rule="evenodd" clip-rule="evenodd" d="M25.6887 1.73987C25.6887 0.818763 24.8699 0 23.9488 0C23.0277 0 22.209 0.818763 22.209 1.73987V3.47974H25.6887V1.73987ZM25.6887 36.0256H22.209V41.3475C22.209 42.2687 15.2495 48 15.2495 48H19.3433L23.9488 43.5991L28.9637 48L32.7505 47.8976L25.6887 41.2452V36.0256ZM45.4414 10.3369C46.8742 10.3369 48 9.21109 48 7.77825C48 6.34542 46.8742 5.11727 45.4414 5.11727H2.55864C1.1258 5.11727 0 6.34542 0 7.67591C0 9.0064 1.1258 10.2345 2.55864 10.2345H5.11727V30.806H3.58209C2.14925 30.806 1.53518 31.6247 1.53518 32.5458C1.53518 33.4669 2.14925 34.2857 3.58209 34.2857H44.1109C45.5437 34.2857 46.2601 33.4669 46.2601 32.5458C46.2601 30.7036 44.1109 30.806 44.1109 30.806L42.7804 31.0107V10.3369H45.4414ZM17.194 27.4286C10.951 27.4286 10.2345 20.4691 10.2345 20.4691C10.2345 13.7143 17.0917 13.6119 17.0917 13.6119V20.4691H24.0512C24.0512 27.4286 17.194 27.4286 17.194 27.4286ZM29.1684 20.6738H27.4286V18.9339H29.1684V20.6738ZM29.1684 15.4542H27.4286V13.7143H29.1684V15.4542ZM36.8443 20.6738H31.7271C31.2153 20.6738 30.806 20.2644 30.806 19.7527C30.806 19.2409 31.2153 18.8316 31.7271 18.8316H36.8443C37.3561 18.8316 37.7655 19.2409 37.7655 19.7527C37.6631 20.2644 37.2537 20.6738 36.8443 20.6738ZM36.8443 15.4542H31.7271C31.2153 15.4542 30.806 15.0448 30.806 14.533C30.806 14.0213 31.2153 13.6119 31.7271 13.6119H36.8443C37.3561 13.6119 37.7655 14.0213 37.7655 14.533C37.6631 15.0448 37.2537 15.4542 36.8443 15.4542Z" fill="currentColor"/>
</svg>
