<svg width="48" height="48" viewBox="0 0 48 48" fill="none" xmlns="http://www.w3.org/2000/svg">
<path d="M40.465 1.12102C38.6306 0.101911 36.7962 0 36.1847 0C36.0828 0 35.9809 0 35.9809 0H12.2357V2.24204H36.0828C36.0828 2.24204 36.0828 2.24204 36.1847 2.24204C36.5924 2.24204 38.0191 2.34395 39.242 3.05732C40.5669 3.7707 41.6879 4.99363 41.6879 8.05096C41.6879 40.9682 41.6879 40.9682 41.6879 40.9682H43.9299C43.9299 40.9682 43.9299 40.9682 43.9299 8.05096C43.9299 4.38217 42.2994 2.14013 40.465 1.12102ZM33.4331 5.09554H10.5032C7.44586 5.09554 5 7.5414 5 10.5987V42.3949C5 45.4522 7.44586 47.8981 10.5032 47.8981H33.4331C36.4904 47.8981 38.9363 45.4522 38.9363 42.3949V10.5987C39.0382 7.5414 36.4904 5.09554 33.4331 5.09554ZM36.7962 42.3949C36.7962 44.2293 35.2675 45.758 33.4331 45.758H10.5032C8.66879 45.758 7.14013 44.2293 7.14013 42.3949V10.5987C7.14013 8.76433 8.66879 7.23567 10.5032 7.23567H33.4331C35.2675 7.23567 36.7962 8.76433 36.7962 10.5987V42.3949ZM15.5987 25.5796C15.3949 25.2739 15.1911 25.0701 14.9873 24.8662C14.7834 24.6624 14.4777 24.4586 14.172 24.3567C13.8662 24.2548 13.5605 24.1529 13.1529 24.1529C12.949 24.1529 12.5414 24.1529 11.828 24.1529H9.38217L7.44586 33.3248H10.707C11.5223 33.3248 12.1338 33.3248 12.5414 33.2229C13.1529 32.9172 13.7643 32.7134 14.172 32.3057C14.7834 31.8981 15.1911 31.2866 15.5987 30.4713C16.0064 29.758 16.2102 28.8408 16.2102 27.8217C16.2102 27.414 16.2102 26.9045 16.1083 26.5987C15.9045 26.293 15.8025 25.8854 15.5987 25.5796ZM13.8662 29.8599C13.6624 30.4713 13.2548 30.879 12.949 31.1847C12.7452 31.3885 12.4395 31.5924 12.1338 31.6943C11.828 31.7962 11.3185 31.7962 10.6051 31.7962H9.6879L11.0127 25.5796H12.1338C12.6433 25.5796 13.051 25.5796 13.2548 25.6815C13.5605 25.7834 13.8662 25.9873 14.0701 26.293C14.2739 26.5987 14.3758 27.1083 14.3758 27.7197C14.2739 28.6369 14.172 29.2484 13.8662 29.8599ZM22.4268 23.949C21.6115 23.949 20.7962 24.1529 20.1847 24.4586C19.4713 24.7643 18.9618 25.2739 18.5541 25.8854C18.1465 26.4968 17.8408 27.2102 17.535 28.0255C17.3312 28.535 17.2293 29.1465 17.2293 29.6561C17.2293 30.2675 17.3312 30.7771 17.6369 31.3885C17.8408 32 18.2484 32.4076 18.8599 32.8153C19.4713 33.2229 20.1847 33.4268 21 33.4268C22.0191 33.4268 22.8344 33.2229 23.6497 32.7134C24.465 32.2038 25.0764 31.4904 25.4841 30.6752C25.8917 29.758 26.1975 28.8408 26.1975 27.8217C26.1975 26.7006 25.8917 25.6815 25.1783 25.0701C24.465 24.2548 23.5478 23.949 22.4268 23.949ZM23.8535 29.8599C23.5478 30.5732 23.1401 31.0828 22.7325 31.3885C22.2229 31.6943 21.8153 31.8981 21.3057 31.8981C20.6943 31.8981 20.1847 31.6943 19.7771 31.2866C19.3694 30.879 19.1656 30.3694 19.1656 29.6561C19.1656 28.6369 19.4713 27.7197 19.9809 26.8025C20.5924 25.9873 21.3057 25.4777 22.2229 25.4777C22.8344 25.4777 23.3439 25.6815 23.7516 26.0892C24.1592 26.4968 24.3631 27.1083 24.3631 27.8217C24.2611 28.4331 24.1592 29.1465 23.8535 29.8599ZM30.6815 26.0892C31.0892 25.7834 31.5987 25.5796 32.1083 25.5796C32.6178 25.5796 32.9236 25.6815 33.2293 25.9873C33.535 26.1911 33.7389 26.5987 33.8408 27.1083L35.6752 26.9045C35.5732 25.9873 35.1656 25.2739 34.5541 24.7643C33.9427 24.2548 33.1274 23.949 32.1083 23.949C31.1911 23.949 30.3758 24.1529 29.6624 24.6624C28.949 25.0701 28.3376 25.7834 27.9299 26.5987C27.5223 27.414 27.3185 28.4331 27.3185 29.4522C27.3185 30.7771 27.6242 31.6943 28.2357 32.4076C28.8471 33.121 29.7643 33.4268 30.8854 33.4268C31.9045 33.4268 32.7197 33.121 33.535 32.6115C34.2484 32.1019 34.8599 31.2866 35.1656 30.2675L33.2293 29.9618C33.0255 30.5732 32.7197 31.0828 32.3121 31.3885C31.9045 31.6943 31.4968 31.8981 30.9873 31.8981C30.4777 31.8981 30.0701 31.6943 29.6624 31.2866C29.3567 30.879 29.1529 30.3694 29.1529 29.5541C29.1529 28.8408 29.2548 28.2293 29.5605 27.5159C29.8662 26.9045 30.172 26.3949 30.6815 26.0892Z" fill="currentColor"/>
</svg>
