<svg width="49" height="48" viewBox="0 0 49 48" fill="none" xmlns="http://www.w3.org/2000/svg">
<path d="M24.9337 25.6978C25.8598 25.7117 26.7808 25.5595 27.6531 25.2485C29.9733 24.4783 32.293 23.7072 34.6122 22.9353C38.9477 21.4929 43.2826 20.0485 47.6168 18.6022C47.9622 18.4875 48.2915 18.3288 48.5964 18.13C48.7135 18.0812 48.8138 17.9994 48.8851 17.8945C48.9564 17.7896 48.9957 17.6662 48.998 17.5394C49.0004 17.4126 48.9657 17.2878 48.8984 17.1804C48.831 17.0729 48.7338 16.9874 48.6186 16.9343C48.3284 16.732 48.0091 16.575 47.6717 16.4686C46.7077 16.1532 45.7307 15.8711 44.7557 15.5791C38.9573 13.8376 33.1587 12.0961 27.3599 10.3546C25.8414 9.88405 24.2166 9.88087 22.6963 10.3454C15.9462 12.3726 9.19605 14.399 2.44591 16.4249C2.06428 16.5437 1.70292 16.7199 1.37423 16.9473C1.26282 16.9963 1.16798 17.0764 1.10114 17.1781C1.0343 17.2798 0.998331 17.3987 0.997571 17.5203C0.996811 17.642 1.0313 17.7613 1.09686 17.8638C1.16242 17.9663 1.25626 18.0477 1.36704 18.098C1.66473 18.31 1.99251 18.4762 2.33946 18.5911C8.67729 20.7088 15.0173 22.8204 21.3595 24.9259C22.4932 25.4018 23.7048 25.665 24.9337 25.7024M10.4199 23.2501V23.6622C10.4199 26.5736 10.4277 29.485 10.4121 32.3963C10.4018 32.892 10.5815 33.3729 10.9143 33.7404C11.5014 34.3862 12.202 34.919 12.9812 35.3123C16.22 36.9703 19.787 37.887 23.4238 37.9958C25.1639 38.0923 26.9092 38.03 28.6379 37.8096C31.0834 37.5307 33.4755 36.8985 35.7394 35.9327C36.9472 35.4593 38.05 34.753 38.9852 33.854C39.1894 33.6542 39.3503 33.4145 39.4577 33.1497C39.5651 32.885 39.6168 32.601 39.6095 32.3154C39.588 29.4386 39.6004 26.5618 39.6004 23.6844V23.2573C39.4384 23.3023 39.3287 23.3272 39.2223 23.3624C35.4077 24.632 31.5892 25.8898 27.7805 27.1783C26.0203 27.8066 24.0987 27.8169 22.3319 27.2077C19.2625 26.1628 16.178 25.1551 13.1001 24.1317C12.2243 23.8405 11.3479 23.5525 10.4225 23.2462M46.2578 21.0368C45.6667 21.2328 45.1515 21.413 44.6251 21.5658C44.5733 21.5737 44.5237 21.5919 44.479 21.6193C44.4344 21.6467 44.3957 21.6828 44.3653 21.7254C44.3348 21.7681 44.3133 21.8163 44.3018 21.8675C44.2903 21.9186 44.2892 21.9714 44.2986 22.023C44.3108 23.8672 44.3108 25.7117 44.2986 27.5564C44.2856 27.8035 44.2269 28.0459 44.1255 28.2716C43.763 29.1584 43.3418 30.0231 43.0153 30.923C42.818 31.3857 42.7553 31.8948 42.8344 32.3916C42.9136 32.8883 43.1313 33.3527 43.4626 33.7312C43.9698 34.254 44.5172 34.7362 45.0999 35.1732C45.1554 35.2031 45.2174 35.2187 45.2805 35.2187C45.3435 35.2187 45.4055 35.2031 45.461 35.1732C45.9557 34.8256 46.4244 34.4423 46.8632 34.0264C47.2641 33.6512 47.545 33.1657 47.6705 32.6311C47.796 32.0965 47.7605 31.5367 47.5685 31.0223C47.2485 30.0975 46.8168 29.2113 46.4517 28.3016C46.3427 28.0556 46.2794 27.7918 46.265 27.5231C46.2499 25.5071 46.2565 23.4904 46.2565 21.4737V21.0368" fill="currentColor"/>
<path d="M24.9337 25.6978C23.7048 25.6604 22.4925 25.3972 21.3588 24.9213C15.0175 22.815 8.67748 20.704 2.33878 18.5885C1.9922 18.4744 1.66469 18.3091 1.36704 18.098C1.25701 18.0473 1.16388 17.9661 1.09887 17.8638C1.03386 17.7616 0.999682 17.6428 1.00044 17.5217C1.0012 17.4005 1.03685 17.2822 1.10314 17.1808C1.16943 17.0794 1.26353 16.9992 1.37419 16.9499C1.70286 16.7225 2.06422 16.5463 2.44588 16.4275C9.1934 14.3921 15.944 12.3643 22.6963 10.3454C24.2172 9.88115 25.8419 9.8857 27.3605 10.3572C33.1585 12.0987 38.9571 13.8402 44.7563 15.5818C45.7301 15.8743 46.7071 16.1565 47.6736 16.4712C48.011 16.5776 48.3303 16.7346 48.6205 16.9369C48.7357 16.99 48.8329 17.0755 48.9003 17.183C48.9677 17.2905 49.0023 17.4152 48.9999 17.542C48.9976 17.6688 48.9584 17.7922 48.887 17.8971C48.8157 18.002 48.7154 18.0838 48.5983 18.1327C48.2933 18.3313 47.9641 18.49 47.6187 18.6048C43.2841 20.052 38.9491 21.4955 34.6122 22.9353C32.293 23.7072 29.9733 24.4783 27.6531 25.2485C26.7808 25.5595 25.8598 25.7117 24.9337 25.6978Z" fill="currentColor"/>
<path d="M10.4199 23.2501C11.3473 23.5564 12.2231 23.8444 13.0969 24.1357C16.1748 25.1584 19.2573 26.1687 22.3287 27.2117C24.0955 27.8209 26.0171 27.8105 27.7772 27.1823C31.5853 25.8938 35.4044 24.6353 39.219 23.3664C39.3255 23.3311 39.4352 23.3057 39.5972 23.2613V23.6851C39.5972 26.5619 39.5854 29.4393 39.6063 32.3161C39.6136 32.6017 39.562 32.8857 39.4545 33.1505C39.3471 33.4152 39.1862 33.655 38.982 33.8547C38.0468 34.7538 36.944 35.4601 35.7362 35.9334C33.4723 36.8992 31.0802 37.5315 28.6347 37.8104C26.9059 38.0307 25.1607 38.093 23.4206 37.9965C19.7838 37.8877 16.2167 36.9711 12.978 35.313C12.1988 34.9197 11.4982 34.3869 10.911 33.7411C10.5782 33.3736 10.3986 32.8927 10.4088 32.3971C10.4245 29.4857 10.4167 26.5743 10.4167 23.6629V23.2508" fill="currentColor"/>
<path d="M46.2572 21.0343V21.4705C46.2572 23.4872 46.2506 25.5032 46.2656 27.5199C46.2801 27.7886 46.3434 28.0524 46.4524 28.2984C46.8168 29.2087 47.2485 30.0943 47.5692 31.0191C47.7612 31.5335 47.7967 32.0933 47.6712 32.6279C47.5457 33.1624 47.2648 33.6479 46.8639 34.0232C46.4251 34.4391 45.9564 34.8224 45.4617 35.17C45.4063 35.1997 45.3444 35.2153 45.2815 35.2153C45.2186 35.2153 45.1566 35.1997 45.1012 35.17C44.5185 34.733 43.9711 34.2508 43.464 33.728C43.1327 33.3495 42.9149 32.8851 42.8358 32.3883C42.7566 31.8915 42.8193 31.3825 43.0166 30.9198C43.3432 30.0205 43.7624 29.1565 44.1269 28.2683C44.2283 28.0427 44.287 27.8002 44.2999 27.5532C44.3138 25.7089 44.3138 23.8644 44.2999 22.0197C44.2906 21.9682 44.2917 21.9153 44.3031 21.8642C44.3146 21.8131 44.3362 21.7648 44.3666 21.7222C44.3971 21.6796 44.4357 21.6435 44.4804 21.6161C44.525 21.5887 44.5747 21.5705 44.6264 21.5626C45.1489 21.4104 45.6648 21.2276 46.2591 21.0336" fill="currentColor"/>
</svg>
