<svg width="48" height="49" viewBox="0 0 48 49" fill="none" xmlns="http://www.w3.org/2000/svg">
<path d="M24 0C10.7234 0 0 10.7234 0 24C0 34.7234 7.04681 43.7106 16.6468 46.8766L11.3362 7.45532C11.234 6.6383 11.8468 5.9234 12.6638 5.82128C13.4809 5.71915 14.1957 6.33191 14.2979 7.14894L19.8128 47.6936C20.6298 47.7957 21.4468 47.8979 22.2638 48L24.817 48.1021C37.6851 47.4894 48 36.9702 48 24C48 10.7234 37.2766 0 24 0ZM25.3277 26.5532C22.5702 25.8383 19.4043 25.3277 18.6894 25.634C16.4426 9.70213 16.6468 8.88511 16.6468 8.88511C16.6468 8.88511 32.2723 12.8681 38.2979 7.96596C34.6213 16.6468 32.3745 18.2809 33.7021 19.5064C35.0298 20.7319 40.3404 24.817 40.3404 24.817C40.3404 24.817 34.5191 28.9021 25.3277 26.5532Z" fill="currentColor"/>
</svg>
