<svg width="48" height="48" viewBox="0 0 48 48" fill="none" xmlns="http://www.w3.org/2000/svg">
<path fill-rule="evenodd" clip-rule="evenodd" d="M46 22.483V25.5178L41.7753 27.3961C41.6106 28.2632 41.3824 29.1171 41.0925 29.9508L43.8101 33.6867L42.2935 36.3145L37.6928 35.8273C37.1158 36.4939 36.4916 37.1182 35.8249 37.6952L36.3121 42.2951L33.6843 43.8117L29.9484 41.0941C29.1147 41.384 28.2608 41.6122 27.3937 41.7769L25.517 46.0008H22.4814L20.6047 41.7769C19.7376 41.6122 18.8837 41.384 18.05 41.0941L14.3141 43.8117L11.6863 42.2951L12.1735 37.6952C11.5061 37.119 10.8818 36.4947 10.3056 35.8273L5.70568 36.3145L4.18907 33.6867L6.90673 29.9508C6.617 29.1169 6.38827 28.2631 6.22235 27.3961L2 25.5178V22.483L6.22235 20.6063C6.38755 19.7386 6.6163 18.8842 6.90673 18.05L4.18907 14.3141L5.70568 11.6863L10.3072 12.1735C10.8836 11.5069 11.5074 10.8826 12.1735 10.3056L11.6863 5.70568L14.3141 4.18907L18.05 6.90673C18.8837 6.61682 19.7376 6.3886 20.6047 6.22394L22.4814 2H25.517L27.3937 6.22394C28.2608 6.38861 29.1147 6.61682 29.9484 6.90673L33.6843 4.18907L36.3121 5.70568L35.8249 10.3056C36.491 10.8826 37.1148 11.5069 37.6912 12.1735L42.2927 11.6863L43.8093 14.3141L41.0917 18.05C41.3818 18.8842 41.6103 19.7386 41.7753 20.6063L46 22.483ZM23.9996 11.0567C21.4395 11.0569 18.9369 11.8162 16.8083 13.2386C14.6798 14.661 13.0208 16.6827 12.0411 19.0479C11.0615 21.4132 10.8052 24.0158 11.3047 26.5267C11.8042 29.0376 13.037 31.344 14.8473 33.1543C16.6576 34.9646 18.964 36.1974 21.4749 36.6969C23.9858 37.1964 26.5884 36.9401 28.9537 35.9605C31.3189 34.9808 33.3406 33.3218 34.763 31.1932C36.1854 29.0647 36.9447 26.5621 36.9448 24.002C36.9448 20.5689 35.5811 17.2764 33.1535 14.8489C30.726 12.4213 27.4335 11.0575 24.0004 11.0575" fill="currentColor"/>
</svg>
