<svg width="48" height="48" viewBox="0 0 48 48" fill="none" xmlns="http://www.w3.org/2000/svg">
<path d="M24 0C10.7013 0 0 10.7013 0 24C0 37.2987 10.7013 48 24 48C37.2987 48 48 37.2987 48 24C48 10.7013 37.2987 0 24 0ZM24.8312 8.51948C25.2468 9.35065 24.9351 10.9091 22.6494 11.7403L19.7403 6.02597C19.7403 6.02597 23.7922 4.77922 24.8312 8.51948ZM18.1818 43.8442C16.5195 43.9481 14.5455 44.3636 14.026 38.1299C13.1948 36.7792 11.7403 36.3636 10.2857 36.0519C8.83117 35.7403 8.51948 32.6234 10.2857 30.2338C8.72727 28.6753 2.38961 23.1688 3.74026 17.6623C5.09091 13.2987 7.27273 7.79221 14.8571 4.25974C17.8701 7.06494 19.8442 8.72727 15.7922 10.9091C14.1299 11.8442 13.7143 14.1299 15.7922 14.4416C15.7922 14.4416 16.2078 12.3636 17.4545 12.987C18.7013 13.5065 21.5065 16.4156 19.3247 16.5195C17.1429 16.6234 16.2078 17.5584 15.2727 18.8052C14.3377 20.0519 12.5714 23.1688 11.3247 23.2727C10.0779 23.3766 10.2857 21.4026 9.14286 21.4026C8.1039 21.4026 6.96104 21.4026 7.48052 24.8312C8.20779 26.7013 13.9221 31.0649 26.9091 35.1169C27.1169 35.6364 25.5584 43.2208 18.1818 43.8442ZM41.4545 28.8831C41.4545 28.8831 41.1429 29.1948 40.4156 29.6104C39.6883 30.026 32.4156 32.2078 32.7273 25.974C33.2468 24.5195 37.0909 16.6234 29.7143 13.5065C30.5455 12.0519 33.1429 11.6364 33.1429 11.6364L28.5714 4.15584C28.5714 4.15584 43.013 5.92208 44.5714 20.7792C44.5714 23.0649 44.4675 29.1948 43.1169 32.5195C41.7662 29.9221 41.4545 28.8831 41.4545 28.8831Z" fill="currentColor"/>
</svg>
