<svg width="48" height="48" viewBox="0 0 48 48" fill="none" xmlns="http://www.w3.org/2000/svg">
<path fill-rule="evenodd" clip-rule="evenodd" d="M44.3312 27.4588C42.9045 27.4588 41.5796 28.376 40.9682 29.599C40.9682 29.599 40.9682 29.599 40.8662 29.599H34.9554L31.0828 19.204C30.7771 18.4907 30.0637 17.9811 29.2484 18.083C28.4331 18.1849 27.8217 18.6945 27.6178 19.5098L25.0701 30.9238L22.6242 4.6308C22.5223 3.81551 21.9108 3.10214 20.9936 3.00023C20.1783 2.89832 19.3631 3.40787 19.0573 4.22316L11.5159 29.3951H1.83439C0.815287 29.3951 0 30.2104 0 31.2295C0 32.2486 0.815287 33.0639 1.83439 33.0639H12.9427C13.758 33.0639 14.4713 32.5544 14.6752 31.7391L19.8726 14.2104L22.5223 42.5416C22.6242 43.4588 23.3376 44.0703 24.1529 44.1722H24.2548C25.0701 44.1722 25.7834 43.5607 25.9873 42.7455L29.758 26.0321L32 31.9429C32.3057 32.6563 32.9172 33.0639 33.7325 33.0639H40.9682C41.0701 33.0639 41.172 33.0639 41.2739 32.962C41.8854 33.9811 43.1083 34.6945 44.3312 34.6945C46.3694 34.6945 48 33.0639 48 31.0257C48 29.0894 46.3694 27.4588 44.3312 27.4588Z" fill="currentColor"/>
</svg>
