<svg width="48" height="49" viewBox="0 0 48 49" fill="none" xmlns="http://www.w3.org/2000/svg">
<path d="M33.9064 18.1787L40.9532 11.1319C42.0766 10.0085 42.0766 8.17021 40.9532 7.04681C39.8298 5.9234 37.9915 5.9234 36.8681 7.04681L29.8213 14.0936C28.6979 15.217 28.6979 17.0553 29.8213 18.1787C30.9447 19.3021 32.783 19.3021 33.9064 18.1787ZM14.0936 29.8213L7.04681 36.8681C5.9234 37.9915 5.9234 39.8298 7.04681 40.9532C8.17021 42.0766 10.0085 42.0766 11.1319 40.9532L18.1787 33.9064C19.3021 32.783 19.3021 30.9447 18.1787 29.8213C17.0553 28.6979 15.217 28.6979 14.0936 29.8213ZM15.7277 24C15.7277 22.366 14.4 21.0383 12.766 21.0383H2.9617C1.32766 21.0383 0 22.366 0 24C0 25.634 1.32766 26.9617 2.9617 26.9617H12.8681C14.5021 26.8596 15.7277 25.634 15.7277 24ZM45.0383 21.0383H35.1319C33.4979 21.0383 32.1702 22.366 32.1702 24C32.1702 25.634 33.4979 26.9617 35.1319 26.9617H45.0383C46.6723 26.9617 48 25.634 48 24C48 22.366 46.6723 21.0383 45.0383 21.0383ZM14.0936 18.1787C15.217 19.3021 17.0553 19.3021 18.1787 18.1787C19.3021 17.0553 19.3021 15.217 18.1787 14.0936L11.1319 7.04681C10.0085 5.9234 8.17021 5.9234 7.04681 7.04681C5.9234 8.17021 5.9234 10.0085 7.04681 11.1319L14.0936 18.1787ZM33.9064 29.8213C32.783 28.6979 30.9447 28.6979 29.8213 29.8213C28.6979 30.9447 28.6979 32.783 29.8213 33.9064L36.8681 40.9532C37.9915 42.0766 39.8298 42.0766 40.9532 40.9532C42.0766 39.8298 42.0766 37.9915 40.9532 36.8681L33.9064 29.8213ZM24 0C22.366 0 21.0383 1.32766 21.0383 2.9617V12.8681C21.0383 14.5021 22.366 15.8298 24 15.8298C25.634 15.8298 26.9617 14.5021 26.9617 12.8681V2.9617C26.9617 1.32766 25.634 0 24 0ZM24 32.2723C22.366 32.2723 21.0383 33.6 21.0383 35.234V45.1404C21.0383 46.7745 22.366 48.1021 24 48.1021C25.634 48.1021 26.9617 46.7745 26.9617 45.1404V35.234C26.8596 33.4979 25.634 32.2723 24 32.2723Z" fill="currentColor"/>
</svg>
