<svg width="48" height="48" viewBox="0 0 48 48" fill="none" xmlns="http://www.w3.org/2000/svg">
<path fill-rule="evenodd" clip-rule="evenodd" d="M37.2681 14.9106C37.0638 16.7489 36.5532 18.4851 35.634 20.2213C35.634 20.3234 30.834 28.9021 30.834 34.3149C30.834 34.3149 30.6298 35.9489 30.6298 36.0511C30.2213 37.8894 28.9957 38.1957 28.383 38.1957H18.9872C18.3745 38.1957 17.1489 37.8894 16.7404 35.9489L16.5362 34.3149C16.5362 31.2511 14.9021 26.3489 11.8383 20.6298L11.634 20.1191L11.7362 20.3234C10.817 18.6894 10.3064 16.8511 10.1021 15.0128L10 13.7872C10 10.1106 11.4298 6.74043 13.983 4.18723C16.5362 1.42979 20.0085 0 23.6851 0C25.0128 0 26.2383 0.204255 27.566 0.510638C29.7106 1.1234 31.7532 2.34894 33.3872 3.98298C35.9404 6.53617 37.3702 10.0085 37.3702 13.6851C37.2681 13.6851 37.2681 14.9106 37.2681 14.9106ZM32.366 4.90213C30.9362 3.47234 29.0979 2.34894 27.1574 1.73617C26.034 1.42979 24.9106 1.22553 23.6851 1.22553C20.417 1.22553 17.2511 2.55319 15.0043 4.8C12.6553 7.14894 11.4298 10.2128 11.4298 13.4809L11.5319 14.6043C11.7362 16.3404 12.1447 17.8723 13.0638 19.5064L13.166 19.7106C16.2298 25.634 17.966 30.7404 17.966 34.0085C17.966 34.0085 18.0681 35.4383 18.0681 35.5404C18.2723 36.766 18.783 36.766 18.9872 36.766H23.0723V34.1106C23.0723 31.5574 23.0723 28.5957 22.766 25.8383C22.2553 25.7362 21.6426 25.4298 20.8255 24.9191L20.5191 24.7149C18.4766 23.3872 17.5574 21.4468 17.5574 19.7106C17.5574 19.3021 17.6596 18.8936 17.6596 18.4851C17.966 17.3617 18.6809 16.5447 19.6 16.5447C20.5191 16.5447 21.8468 17.0553 22.9702 20.1191C23.1745 20.7319 23.3787 21.5489 23.4809 22.366C24.2979 19.4043 25.4213 16.4426 27.0553 15.6255C27.7702 15.3191 28.4851 15.3191 29.3021 15.7277C30.017 16.1362 30.4255 16.7489 30.5277 17.566C30.5277 17.6681 30.5277 17.6681 30.5277 17.7702C30.5277 20.3234 26.8511 23.8979 26.034 24.5106C25.217 25.1234 24.6043 25.4298 24.0936 25.7362C24.0936 25.8383 24.0936 25.9404 23.9915 26.0426L23.8894 26.3489C24.0936 29.0043 24.0936 31.8638 24.0936 34.2128V36.8681H28.0766C28.2809 36.8681 28.7915 36.8681 29.0979 35.8468C29.0979 35.8468 29.3021 34.2128 29.3021 34.3149C29.3021 28.6979 34.3064 19.8128 34.3064 19.7106C35.1234 18.1787 35.634 16.5447 35.7362 14.9106L35.8383 13.7872C35.9404 10.3149 34.7149 7.25106 32.366 4.90213ZM22.5617 24.4085C22.3574 22.9787 22.1532 21.6511 21.7447 20.6298C20.9277 18.5872 20.1106 17.8723 19.6 17.8723C19.2936 17.8723 18.9872 18.2809 18.783 18.7915C18.6809 18.9957 18.6809 19.3021 18.6809 19.6085C18.6809 20.834 19.3957 22.4681 21.0298 23.4894L21.3362 23.6936C21.9489 24.1021 22.2553 24.3064 22.5617 24.4085ZM24.6043 23.8979C24.9106 23.6936 25.1149 23.5915 25.5234 23.2851C26.3404 22.6723 29.4043 19.5064 29.4043 17.7702V17.6681C29.4043 17.3617 29.2 17.1574 28.8936 16.9532C28.4851 16.7489 28.1787 16.7489 27.8723 16.8511C26.9532 17.3617 25.7277 18.8936 24.6043 23.8979ZM17.7617 39.7277C17.7617 39.1149 18.2723 38.6043 18.9872 38.6043H28.383C28.9957 38.6043 29.6085 39.1149 29.6085 39.7277C29.6085 40.3404 29.0979 40.8511 28.383 40.8511C28.9957 40.8511 29.6085 41.3617 29.6085 41.9745C29.6085 42.5872 29.0979 43.0979 28.383 43.0979C28.9957 43.0979 29.6085 43.6085 29.6085 44.2213C29.6085 44.834 29.0979 45.3447 28.383 45.3447H18.9872C18.3745 45.3447 17.7617 44.834 17.7617 44.2213C17.7617 43.6085 18.2723 43.0979 18.9872 43.0979C18.3745 43.0979 17.7617 42.5872 17.7617 41.9745C17.7617 41.3617 18.2723 40.8511 18.9872 40.8511C18.2723 40.9532 17.7617 40.4426 17.7617 39.7277ZM20.2128 44.1191H25.4213C25.8298 44.1191 26.034 43.8128 26.034 43.5064C26.034 43.0979 25.7277 42.8936 25.4213 42.8936H20.2128C19.8043 42.8936 19.6 43.2 19.6 43.5064C19.6 43.8128 19.8043 44.1191 20.2128 44.1191ZM20.1106 41.4638H27.1574C27.566 41.4638 27.7702 41.1574 27.7702 40.8511C27.7702 40.4426 27.4638 40.2383 27.1574 40.2383H20.1106C19.7021 40.2383 19.4979 40.5447 19.4979 40.8511C19.3957 41.1574 19.7021 41.4638 20.1106 41.4638ZM23.6851 48C22.1532 48 20.7234 47.2851 19.9064 46.0596H27.3617C26.5447 47.183 25.217 48 23.6851 48Z" fill="currentColor"/>
</svg>
