<svg width="48" height="48" viewBox="0 0 48 48" fill="none" xmlns="http://www.w3.org/2000/svg">
<path d="M24 16.4237C18.1017 16.4237 13.4237 21.2034 13.4237 27C13.4237 32.7966 18.2034 37.5763 24 37.5763C29.7966 37.5763 34.5763 32.8983 34.5763 27C34.5763 21.1017 29.8983 16.4237 24 16.4237ZM43.9322 8.69492H35.0847V6.9661C35.0847 4.72881 33.2542 3 31.1186 3H16.8814C14.6441 3 12.9153 4.83051 12.9153 6.9661V8.69492H3.9661C1.83051 8.69492 0 10.5254 0 12.7627V40.2203C0 42.4576 1.83051 44.1864 3.9661 44.1864H43.9322C46.1695 44.1864 47.8983 42.3559 47.8983 40.2203V12.7627C48 10.5254 46.1695 8.69492 43.9322 8.69492ZM24 40.4237C16.5763 40.4237 10.5763 34.4237 10.5763 27C10.5763 19.5763 16.5763 13.5763 24 13.5763C31.4237 13.5763 37.4237 19.5763 37.4237 27C37.4237 34.4237 31.4237 40.4237 24 40.4237ZM42.4068 14.4915C41.5932 14.4915 40.983 13.8814 40.983 13.0678C40.983 12.2542 41.5932 11.6441 42.4068 11.6441C43.2203 11.6441 43.8305 12.2542 43.8305 13.0678C43.8305 13.8814 43.2203 14.4915 42.4068 14.4915Z" fill="currentColor"/>
</svg>
