<svg width="48" height="49" viewBox="0 0 48 49" fill="none" xmlns="http://www.w3.org/2000/svg">
<path d="M45.3557 28.9458C44.8351 28.321 44.5228 28.1128 44.3145 27.4881C45.3557 26.9675 46.2928 24.9892 46.2928 24.3644C46.1887 20.0955 42.128 19.2625 42.128 19.2625C42.128 19.2625 42.128 19.2625 30.154 19.2625C29.321 19.1584 29.9458 16.7636 30.3623 15.9306C32.4447 12.1822 33.6941 8.85033 33.6941 7.08026C32.9653 -1.56182 27.0304 3.62146e-06 26.8221 0.832975C26.718 9.57918 24.7397 11.5575 22.449 13.1193C20.1584 14.577 19.9501 16.3471 17.3471 22.3861C14.744 28.4252 11.8286 26.3427 11.8286 26.3427C11.8286 26.3427 11.9328 28.2169 11.9328 45.8135C26.718 48.5206 33.0694 48.2083 36.9219 47.7918C40.7744 47.3753 42.0239 44.7722 42.0239 43.4187C42.0239 41.7527 42.5445 40.9197 43.1692 40.5033C45.8764 38.2126 45.0434 37.4837 44.3145 35.9219C43.5857 34.256 43.7939 33.8395 45.0434 32.6941C47.6464 31.4447 45.8764 29.5705 45.3557 28.9458ZM9.32972 25.6139H1.72885C1.31236 25.6139 1 25.9263 1 26.3427V46.2299C1 46.6464 1.31236 46.9588 1.72885 46.9588H9.32972C9.7462 46.9588 10.0586 46.6464 10.0586 46.2299V26.3427C10.1627 25.9263 9.7462 25.6139 9.32972 25.6139Z" fill="currentColor"/>
</svg>
