<svg width="48" height="48" viewBox="0 0 48 48" fill="none" xmlns="http://www.w3.org/2000/svg">
<path d="M36.3789 19.7285V16.2776C36.3526 13.0124 35.037 9.88974 32.7187 7.59006C30.4005 5.29039 27.2674 4 24.002 4C20.7366 4 17.6035 5.29039 15.2852 7.59006C12.9669 9.88974 11.6513 13.0124 11.625 16.2776V19.7285H9V44H39.0489V19.7285H36.3789ZM14.6417 16.2736C14.6417 13.7912 15.6279 11.4103 17.3833 9.65495C19.1387 7.89957 21.5195 6.91341 24.002 6.91341C26.4845 6.91341 28.8652 7.89957 30.6206 9.65495C32.376 11.4103 33.3622 13.7912 33.3622 16.2736V19.7245H14.6417V16.2736Z" fill="currentColor"/>
</svg>
