<svg width="48" height="48" viewBox="0 0 48 48" fill="none" xmlns="http://www.w3.org/2000/svg">
<path d="M28.9831 26.8814H24H19.017C18.6102 26.8814 18.3051 27.1864 18.3051 27.5932C18.3051 28 18.6102 28.3051 19.017 28.3051H24H28.9831C29.3898 28.3051 29.6949 28 29.6949 27.5932C29.6949 27.1864 29.2881 26.8814 28.9831 26.8814ZM28.9831 23.4237H24H19.017C18.6102 23.4237 18.3051 23.7288 18.3051 24.1356C18.3051 24.5424 18.6102 24.8475 19.017 24.8475H24H28.9831C29.3898 24.8475 29.6949 24.5424 29.6949 24.1356C29.6949 23.7288 29.2881 23.4237 28.9831 23.4237ZM47.7966 19.5593C44.0339 22.5085 29.8983 33.2881 28.5763 34.5085C27.0508 35.9322 25.6271 36.6441 24 36.8475C22.3729 36.7458 20.9492 35.9322 19.4237 34.5085C18.1017 33.2881 3.9661 22.5085 0.20339 19.5593C0.101695 19.9661 0 20.3729 0 20.7797V40.5085C0 41.322 0.20339 42.0339 0.61017 42.7458L11.8983 31.7627C12.1017 31.5593 12.5085 31.5593 12.8136 31.7627C13.0169 31.9661 13.0169 32.3729 12.8136 32.678L1.42373 43.661C2.13559 44.3729 3.15254 44.7797 4.27119 44.7797H24H43.7288C44.8475 44.7797 45.8644 44.3729 46.5763 43.661L35.1864 32.5763C34.9831 32.3729 34.9831 31.9661 35.1864 31.661C35.3898 31.4576 35.7966 31.4576 36.1017 31.661L47.3898 42.6441C47.7966 42.0339 48 41.2203 48 40.4068V20.7797C48 20.3729 47.8983 19.9661 47.7966 19.5593ZM28.9831 19.9661H24H19.017C18.6102 19.9661 18.3051 20.2712 18.3051 20.678C18.3051 21.0847 18.6102 21.3898 19.017 21.3898H24H28.9831C29.3898 21.3898 29.6949 21.0847 29.6949 20.678C29.6949 20.2712 29.2881 19.9661 28.9831 19.9661ZM7.72881 19.2542C7.72881 19.2542 7.83051 16.7119 10.8814 16.6102C16.2712 16.6102 20.5424 16.6102 24 16.6102C27.4576 16.6102 31.7288 16.6102 37.1186 16.6102C40.1695 16.7119 40.2712 19.2542 40.2712 19.2542V22.7119L46.5763 18.0339C46.5763 18.0339 27.8644 5.62712 26.9492 5.11864C26.0339 4.71186 25.2203 4 24 4C22.7797 4 21.9661 4.71186 21.0508 5.11864C20.1356 5.52542 1.42373 18.0339 1.42373 18.0339L7.72881 22.7119V19.2542Z" fill="currentColor"/>
</svg>
