<svg width="48" height="48" viewBox="0 0 48 48" fill="none" xmlns="http://www.w3.org/2000/svg">
<path fill-rule="evenodd" clip-rule="evenodd" d="M44.8495 11H3.1505C2.84562 11.0008 2.55346 11.1223 2.33787 11.3379C2.12228 11.5535 2.00081 11.8456 2 12.1505V36.5372C2.00081 36.8421 2.12228 37.1343 2.33787 37.3499C2.55346 37.5655 2.84562 37.687 3.1505 37.6878H44.8495C45.1544 37.687 45.4465 37.5655 45.6621 37.3499C45.8777 37.1343 45.9992 36.8421 46 36.5372V12.1505C45.9992 11.8456 45.8777 11.5535 45.6621 11.3379C45.4465 11.1223 45.1544 11.0008 44.8495 11ZM42.5852 33.4082L41.1238 35.1805L28.9992 25.2052L27.0207 26.4476C26.0805 26.9073 25.0478 27.1463 24.0012 27.1463C22.9546 27.1463 21.9219 26.9073 20.9817 26.4476L20.8667 26.39L18.934 25.1593L6.7624 35.1805L5.28998 33.4088L16.8968 23.862L5.40504 16.569L6.64736 14.6364L22.0386 24.414C22.6518 24.7038 23.3217 24.8541 24 24.8541C24.6783 24.8541 25.3482 24.7038 25.9614 24.414L41.3526 14.6364L42.595 16.569L31.0457 23.9078L42.5852 33.4082Z" fill="currentColor"/>
</svg>
