<svg width="49" height="48" viewBox="0 0 49 48" fill="none" xmlns="http://www.w3.org/2000/svg">
<path d="M43.1083 9.47771H35.6688V2.44586C35.6688 1.12102 34.5478 0 33.2229 0H14.7771C13.4522 0 12.3312 1.12102 12.3312 2.44586V9.47771H4.99363C2.24204 9.47771 0 11.7197 0 14.4713V42.5987C0 45.3503 2.24204 47.5924 4.99363 47.5924H43.1083C45.8599 47.5924 48.1019 45.3503 48.1019 42.5987V14.4713C48 11.7197 45.8599 9.47771 43.1083 9.47771ZM15.2866 4.38217C15.2866 3.36306 16.1019 2.54777 17.121 2.54777H30.9809C32 2.54777 32.8153 3.36306 32.8153 4.38217V9.47771H15.2866V4.38217ZM35.9745 31.3885C35.9745 31.8981 35.465 32.3057 34.8535 32.3057H27.8217V39.3376C27.8217 39.949 27.414 40.4586 26.9045 40.4586H21.1975C20.6879 40.4586 20.2803 39.949 20.2803 39.3376V32.3057H13.2484C12.6369 32.3057 12.1274 31.8981 12.1274 31.3885V25.6815C12.1274 25.172 12.6369 24.7643 13.2484 24.7643H20.2803V17.7325C20.2803 17.121 20.6879 16.6115 21.1975 16.6115H26.9045C27.414 16.6115 27.8217 17.121 27.8217 17.7325V24.7643H34.8535C35.465 24.7643 35.9745 25.172 35.9745 25.6815V31.3885Z" fill="currentColor"/>
</svg>
