<svg width="48" height="48" viewBox="0 0 48 48" fill="none" xmlns="http://www.w3.org/2000/svg">
<path d="M33.4331 5.09554H10.5032C7.44586 5.09554 5 7.5414 5 10.5987V42.3949C5 45.4522 7.44586 47.8981 10.5032 47.8981H33.4331C36.4904 47.8981 38.9363 45.4522 38.9363 42.3949V10.5987C39.0382 7.5414 36.4904 5.09554 33.4331 5.09554ZM36.7962 42.3949C36.7962 44.2293 35.2675 45.758 33.4331 45.758H10.5032C8.66879 45.758 7.14013 44.2293 7.14013 42.3949V10.5987C7.14013 8.76433 8.66879 7.23567 10.5032 7.23567H33.4331C35.2675 7.23567 36.7962 8.76433 36.7962 10.5987V42.3949ZM40.465 1.12102C38.6306 0.101911 36.7962 0 36.1847 0C36.0828 0 35.9809 0 35.9809 0H12.2357V2.24204H36.0828C36.0828 2.24204 36.0828 2.24204 36.1847 2.24204C36.5924 2.24204 38.0191 2.34395 39.242 3.05732C40.5669 3.7707 41.6879 4.99363 41.6879 8.05096C41.6879 40.9682 41.6879 40.9682 41.6879 40.9682H43.9299C43.9299 40.9682 43.9299 40.9682 43.9299 8.05096C43.9299 4.38217 42.2994 2.14013 40.465 1.12102ZM16.2102 24.3567C15.8025 24.1529 15.293 24.1529 14.6815 24.1529H10.9108L8.97452 33.3248H10.9108L11.6242 29.8599H12.8471C13.6624 29.8599 14.172 29.8599 14.4777 29.758C14.9873 29.6561 15.3949 29.5541 15.7006 29.4522C16.0064 29.3503 16.3121 29.1465 16.5159 28.8408C16.8217 28.535 17.0255 28.2293 17.1274 27.8217C17.3312 27.414 17.4331 26.9045 17.4331 26.4968C17.4331 25.9873 17.3312 25.5796 17.1274 25.172C16.9236 24.7643 16.6178 24.4586 16.2102 24.3567ZM15.293 27.414C15.0892 27.7197 14.8854 27.9236 14.4777 28.0255C14.172 28.1274 13.4586 28.2293 12.4395 28.2293H11.9299L12.4395 25.5796H13.7643C14.3758 25.5796 14.7834 25.5796 14.9873 25.6815C15.1911 25.7834 15.293 25.8854 15.3949 25.9873C15.4968 26.0892 15.4968 26.293 15.4968 26.4968C15.5987 26.9045 15.4968 27.2102 15.293 27.414ZM25.7898 25.5796C25.586 25.2739 25.3822 25.0701 25.1783 24.8662C24.9745 24.6624 24.6688 24.4586 24.3631 24.3567C24.0573 24.2548 23.7516 24.1529 23.3439 24.1529C23.1401 24.1529 22.7325 24.1529 22.0191 24.1529H19.5732L17.6369 33.3248H20.8981C21.7134 33.3248 22.3248 33.3248 22.7325 33.2229C23.4459 33.0191 23.9554 32.8153 24.465 32.4076C25.0764 32 25.4841 31.3885 25.8917 30.5732C26.2994 29.8599 26.5032 28.9427 26.5032 27.9236C26.5032 27.5159 26.5032 27.0064 26.4013 26.7006C26.0955 26.293 25.8917 25.8854 25.7898 25.5796ZM24.0573 29.8599C23.8535 30.4713 23.4459 30.879 23.1401 31.1847C22.8344 31.3885 22.6306 31.5924 22.3248 31.6943C22.0191 31.7962 21.5096 31.7962 20.7962 31.7962H19.879L21.2038 25.5796H22.3248C22.8344 25.5796 23.242 25.5796 23.4459 25.6815C23.7516 25.7834 24.0573 25.9873 24.2611 26.293C24.465 26.5987 24.5669 27.1083 24.5669 27.7197C24.465 28.6369 24.2611 29.2484 24.0573 29.8599ZM26.8089 33.2229H28.7452L29.5605 29.3503H34.0446L34.3503 27.8217H29.8662L30.3758 25.5796H34.8599L35.1656 24.051H28.7452L26.8089 33.2229Z" fill="currentColor"/>
</svg>
