<svg width="48" height="48" viewBox="0 0 48 48" fill="none" xmlns="http://www.w3.org/2000/svg">
<path d="M47.3911 6H5.17548V37.7632C5.17548 38.4736 4.5666 38.981 3.95772 38.981C3.24736 38.981 2.73996 38.3721 2.73996 37.7632V9.75476C2.73996 9.45032 2.43552 9.34884 2.23256 9.24736H1.82664H0.608879C0.30444 9.24736 0 9.5518 0 9.95772V40.9091C0 41.2135 0.30444 41.518 0.608879 41.518H47.2896C47.6956 41.518 47.8985 41.2135 47.8985 40.9091V6.71036C48 6.30444 47.6956 6 47.3911 6ZM8.82875 9.95772H44.4482V16.0465H8.82875V9.95772ZM18.2664 38.0677H8.32135V36.1395H18.2664V38.0677ZM18.2664 34.8203H8.32135V32.8922H18.2664V34.8203ZM18.2664 31.5729H8.32135V29.6448H18.2664V31.5729ZM18.2664 28.2241H8.32135V26.296H18.2664V28.2241ZM18.2664 24.9767H8.32135V23.0486H18.2664V24.9767ZM18.2664 21.7294H8.32135V19.8013H18.2664V21.7294ZM31.7632 38.0677H21.8182V36.1395H31.7632V38.0677ZM31.7632 34.8203H21.8182V32.8922H31.7632V34.8203ZM31.7632 31.4715H21.8182V29.5433H31.7632V31.4715ZM31.7632 27.7167H21.8182V19.9027H31.7632V27.7167ZM44.9556 38.0677H35.0106V36.1395H44.9556V38.0677ZM44.9556 34.8203H35.0106V32.8922H44.9556V34.8203ZM44.9556 31.4715H35.0106V29.5433H44.9556V31.4715ZM44.9556 27.7167H35.0106V19.9027H44.9556V27.7167Z" fill="currentColor"/>
</svg>
