<svg width="48" height="49" viewBox="0 0 48 49" fill="none" xmlns="http://www.w3.org/2000/svg">
<path d="M29.7119 13.6102L35.7119 9.1356L33.0678 5.57628L28.1864 9.1356L31.1356 2.83052L27.0678 0.898315L24.322 6.79662L21.5763 1.00001L17.5085 2.93221L20.4576 9.2373L15.5763 5.67798L13.0339 9.1356L18.9322 13.5085H5V48.8983H43.6441V13.6102H29.7119ZM39.0678 18.0848V23.7797H33.0678V18.0848H39.0678ZM19.5424 27.6441H29V35.5763H19.5424V27.6441ZM15.5763 35.5763H9.57627V27.6441H15.5763V35.5763ZM33.0678 27.6441H39.0678V35.5763H33.0678V27.6441ZM29.1017 18.0848V23.7797H19.6441V18.0848H29.1017ZM15.5763 18.0848V23.7797H9.57627V18.0848H15.5763ZM9.57627 44.4237V39.339H15.5763V44.4237H9.57627ZM19.5424 44.4237V39.339H29V44.4237H19.5424ZM33.0678 44.4237V39.339H39.0678V44.4237H33.0678Z" fill="currentColor"/>
</svg>
