<svg width="48" height="48" viewBox="0 0 48 48" fill="none" xmlns="http://www.w3.org/2000/svg">
<path d="M40.9682 0H32.3057C28.6369 0 25.6815 2.95541 25.6815 6.6242V22.2166H40.9682C44.6369 22.2166 47.5924 19.2611 47.5924 15.5924V6.6242C47.5924 2.95541 44.6369 0 40.9682 0ZM42.5987 13.5541C42.5987 15.5924 40.9682 17.121 39.0318 17.121H30.6752V8.66242C30.6752 6.6242 32.3057 5.09554 34.242 5.09554H38.9299C40.9682 5.09554 42.4968 6.72611 42.4968 8.66242V13.5541H42.5987ZM15.2866 0H6.6242C2.95541 0 0 2.95541 0 6.6242V15.5924C0 19.2611 2.95541 22.2166 6.6242 22.2166H21.9108V6.6242C21.8089 2.95541 18.8535 0 15.2866 0ZM8.56051 17.121C6.52229 17.121 4.99363 15.4904 4.99363 13.5541V8.66242C4.99363 6.6242 6.6242 5.09554 8.56051 5.09554H13.2484C15.2866 5.09554 16.8153 6.72611 16.8153 8.66242V17.121H8.56051ZM0 32.4076V41.3758C0 45.0446 2.95541 48 6.6242 48H15.2866C18.9554 48 21.9108 45.0446 21.9108 41.3758V25.7834H6.6242C2.95541 25.7834 0 28.7389 0 32.4076ZM16.9172 30.879V39.3376C16.9172 41.3758 15.2866 42.9045 13.3503 42.9045H8.56051C6.52229 42.9045 4.99363 41.2739 4.99363 39.3376V34.4459C4.99363 32.4076 6.6242 30.879 8.56051 30.879H16.9172ZM40.9682 25.7834H25.6815V41.3758C25.6815 45.0446 28.6369 48 32.3057 48H40.9682C44.6369 48 47.5924 45.0446 47.5924 41.3758V32.4076C47.5924 28.7389 44.6369 25.7834 40.9682 25.7834ZM42.5987 39.3376C42.5987 41.3758 40.9682 42.9045 39.0318 42.9045H34.344C32.3057 42.9045 30.7771 41.2739 30.7771 39.3376V30.879H39.1338C41.172 30.879 42.7006 32.5096 42.7006 34.4459V39.3376H42.5987Z" fill="currentColor"/>
</svg>
