<svg width="48" height="48" viewBox="0 0 48 48" fill="none" xmlns="http://www.w3.org/2000/svg">
<path d="M32.2559 37.1514H14.7548C13.936 37.1514 13.322 37.7655 13.322 38.5842C13.322 39.403 13.936 40.0171 14.7548 40.0171H32.2559C33.0746 40.0171 33.6887 39.403 33.6887 38.5842C33.6887 37.7655 32.9723 37.1514 32.2559 37.1514ZM35.3262 10.7463H33.3817C32.9723 9.51812 31.7441 8.59701 30.3113 8.59701H28.8785V7.8806C28.8785 6.95949 28.162 6.24307 27.2409 6.24307H24.7846V4.70789C25.7058 4.29851 26.3198 3.47974 26.3198 2.45629C26.3198 1.1258 25.194 0 23.8635 0C22.533 0 21.4073 1.1258 21.4073 2.45629C21.4073 3.47974 22.0213 4.40085 22.9424 4.70789V6.14072H20.4861C19.565 6.14072 18.8486 6.85714 18.8486 7.77825V8.59701H17.4158C15.9829 8.59701 14.8571 9.51812 14.3454 10.7463H12.5032C10.0469 10.7463 8 12.7932 8 15.2495V43.4968C8 45.9531 10.0469 48 12.5032 48H35.3262C37.7825 48 39.8294 45.9531 39.8294 43.4968V15.2495C39.7271 12.7932 37.7825 10.7463 35.3262 10.7463ZM22.1237 2.45629C22.1237 1.53518 22.9424 0.716418 23.8635 0.716418C24.7846 0.716418 25.6034 1.53518 25.6034 2.45629C25.6034 3.3774 24.7846 4.19616 23.8635 4.19616C22.9424 4.19616 22.1237 3.3774 22.1237 2.45629ZM37.2708 43.4968C37.2708 44.6226 36.3497 45.5437 35.2239 45.5437H12.5032C11.3774 45.5437 10.4563 44.6226 10.4563 43.4968V15.2495C10.4563 14.1237 11.3774 13.2026 12.5032 13.2026H14.1407V16.4776H33.5864V13.2026H35.2239C36.3497 13.2026 37.2708 14.1237 37.2708 15.2495V43.4968ZM32.2559 21.0832H14.7548C13.936 21.0832 13.322 21.6972 13.322 22.516C13.322 23.3348 13.936 23.9488 14.7548 23.9488H32.2559C33.0746 23.9488 33.6887 23.3348 33.6887 22.516C33.6887 21.6972 32.9723 21.0832 32.2559 21.0832ZM32.2559 29.1684H14.7548C13.936 29.1684 13.322 29.7825 13.322 30.6013C13.322 31.42 13.936 32.0341 14.7548 32.0341H32.2559C33.0746 32.0341 33.6887 31.42 33.6887 30.6013C33.6887 29.7825 32.9723 29.1684 32.2559 29.1684Z" fill="currentColor"/>
</svg>
