<svg width="48" height="48" viewBox="0 0 48 48" fill="none" xmlns="http://www.w3.org/2000/svg">
<path d="M45.4825 21.7672L35.8627 30.0954C35.6761 30.2574 35.5314 30.4621 35.4411 30.6921C35.3507 30.922 35.3174 31.1705 35.3439 31.4162L36.7537 44.0614C36.785 44.3439 36.7366 44.6295 36.6141 44.886C36.4915 45.1424 36.2997 45.3595 36.0603 45.5127C35.821 45.6659 35.5435 45.7491 35.2593 45.753C34.9751 45.7568 34.6955 45.6811 34.4521 45.5344L23.5589 38.9566C23.3469 38.8284 23.1069 38.7536 22.8596 38.7389C22.6123 38.7242 22.3652 38.77 22.1396 38.8723L10.5485 44.119C10.2895 44.2361 10.0028 44.2783 9.72104 44.241C9.43925 44.2037 9.17351 44.0882 8.9539 43.9077C8.73429 43.7272 8.56955 43.4889 8.47832 43.2197C8.38709 42.9505 8.37301 42.6611 8.43767 42.3843L11.3252 29.9921C11.3811 29.7517 11.3778 29.5013 11.3156 29.2625C11.2534 29.0236 11.1341 28.8035 10.968 28.6209L2.39691 19.2203C2.20557 19.0101 2.07684 18.7505 2.02528 18.4709C1.97372 18.1913 2.00138 17.9029 2.10514 17.6382C2.2089 17.3735 2.38462 17.1431 2.61244 16.973C2.84026 16.803 3.11111 16.7 3.39438 16.6758L16.0712 15.5924C16.3176 15.5715 16.5552 15.491 16.7635 15.3579C16.9719 15.2248 17.1448 15.0431 17.2674 14.8283L23.5589 3.7711C23.6993 3.52397 23.9061 3.32104 24.1558 3.18523C24.4055 3.04942 24.6882 2.98614 24.972 3.00254C25.2557 3.01894 25.5293 3.11438 25.7617 3.27805C25.9941 3.44173 26.1761 3.66714 26.2871 3.92881L31.2326 15.6507C31.3286 15.8786 31.4784 16.0798 31.6692 16.2372C31.8599 16.3945 32.0859 16.5034 32.3278 16.5544L44.7863 19.1225C45.0643 19.1805 45.3206 19.315 45.5264 19.5108C45.7321 19.7066 45.8791 19.9559 45.9507 20.2308C46.0223 20.5056 46.0158 20.795 45.9318 21.0663C45.8478 21.3376 45.6898 21.5801 45.4754 21.7664" fill="currentColor"/>
</svg>
