<svg width="48" height="48" viewBox="0 0 48 48" fill="none" xmlns="http://www.w3.org/2000/svg">
<path d="M0 46.0508H5.18644L9.05085 39.6441L5.28814 37.3051L0 46.0508ZM39.4576 23.1695H30.1017C28.9831 27.7458 24.9153 31.1017 19.9322 31.1017C14.2373 31.1017 9.55932 26.4237 9.55932 20.6271C9.55932 14.8305 14.2373 10.1525 20.0339 10.1525C24.9153 10.1525 29.0847 13.5085 30.2034 18.0847H39.5593C38.2373 8.42373 30 1 20.0339 1C9.15254 1 0.305085 9.74576 0.305085 20.6271C0.305085 31.5085 9.15254 40.2542 20.0339 40.2542C30 40.2542 38.2373 32.8305 39.4576 23.1695ZM30.8136 39.6441L34.678 46.0508H39.8644L34.5763 37.3051L30.8136 39.6441ZM44.5424 20.4237L48 17.9831V16.7627H42.5085L40.2712 19.1017H26.5424C25.8305 16.1525 23.1864 13.9153 19.9322 13.9153C16.1695 13.9153 13.1186 16.9661 13.1186 20.7288C13.1186 24.4915 16.1695 27.5424 19.9322 27.5424C23.1864 27.5424 25.8305 25.3051 26.5424 22.3559H40.1695L42.4068 24.6949H47.8983V23.3729L44.4407 20.9322V20.4237H44.5424Z" fill="currentColor"/>
</svg>
