<svg width="49" height="48" viewBox="0 0 49 48" fill="none" xmlns="http://www.w3.org/2000/svg">
<path d="M20.667 43.587C24.5531 43.7123 28.4401 43.3684 32.2438 42.5628C33.5069 42.3026 34.715 41.8246 35.8141 41.15C36.324 40.81 36.7615 40.3723 37.1013 39.8622C37.441 39.352 37.6762 38.7796 37.7933 38.178C37.9104 37.5764 37.907 36.9575 37.7834 36.3572C37.6599 35.7569 37.4185 35.187 37.0733 34.6806C36.0169 33.2603 34.6632 32.0877 33.1068 31.2447C31.0633 30.0417 28.8967 29.061 26.6443 28.3194C26.2978 28.2229 25.9879 28.0253 25.7543 27.7517C25.5207 27.4782 25.3739 27.1412 25.3329 26.7838C25.2398 26.276 25.2604 25.7539 25.3932 25.255C25.5259 24.7561 25.7676 24.2928 26.1007 23.8984C28.529 21.1141 29.9059 17.5675 29.9927 13.8741C30.0842 11.9848 29.6668 10.1056 28.7841 8.43269C26.3095 3.86276 20.396 2.97442 16.4533 5.09124C13.3745 6.74353 12.0615 9.52065 11.8957 12.8675C11.7018 17.0167 13.1573 21.0741 15.9443 24.1541C16.2313 24.4682 16.4362 24.8484 16.5408 25.2608C16.6453 25.6733 16.6463 26.1052 16.5435 26.5181C16.4408 26.931 16.2375 27.3121 15.9519 27.6274C15.6662 27.9428 15.307 28.1826 14.9062 28.3255C14.0724 28.6541 13.2386 28.9851 12.4201 29.3505C10.0476 30.3242 7.85131 31.6813 5.91917 33.3676C5.27928 33.8999 4.77302 34.5747 4.44101 35.3379C4.109 36.1011 3.96048 36.9315 4.00736 37.7625C4.00886 38.3899 4.16497 39.0072 4.46187 39.5599C4.75876 40.1126 5.1873 40.5836 5.70956 40.9312C7.31813 41.9481 9.12737 42.6054 11.0135 42.8584C14.2004 43.4111 17.4332 43.6551 20.667 43.587ZM38.6334 38.6969L38.7102 38.7891C39.3959 38.6885 40.0861 38.6117 40.7656 38.4819C42.1459 38.2958 43.4694 37.8122 44.6445 37.0646C44.9966 36.8396 45.2956 36.5409 45.521 36.1891C45.7463 35.8373 45.8926 35.4407 45.9498 35.0269C46.0622 34.3391 46.025 33.6351 45.8405 32.963C45.6561 32.291 45.3288 31.6666 44.881 31.1326C43.5262 29.5826 41.8709 28.3236 40.0155 27.4318C38.9705 26.8944 37.8196 26.5757 36.7385 26.1058C36.6101 26.0431 36.4971 25.9527 36.4079 25.841C36.3187 25.7293 36.2554 25.5992 36.2226 25.4601C36.1391 24.7125 36.3233 23.9595 36.7424 23.3348C37.0978 22.8181 37.4533 22.3006 37.795 21.7755C39.49 19.4289 40.2339 16.5278 39.8773 13.6552C39.7308 12.6565 39.3689 11.7015 38.8165 10.8566C38.2641 10.0116 37.5345 9.29701 36.6783 8.76224C35.8222 8.22747 34.8599 7.88536 33.8583 7.75964C32.8567 7.63393 31.8397 7.72761 30.8779 8.0342C30.9793 8.14937 31.0407 8.22845 31.1083 8.29755C32.4676 9.63478 33.2641 11.4411 33.3349 13.3466C33.6638 17.1666 32.6401 20.9807 30.4426 24.1226C30.2434 24.3958 30.0847 24.6963 29.9712 25.0148C29.8495 25.2489 29.7857 25.5089 29.7852 25.7728C29.7848 26.0367 29.8476 26.2968 29.9685 26.5314C30.0893 26.766 30.2647 26.9682 30.4799 27.121C30.695 27.2738 30.9437 27.3727 31.205 27.4095C32.7154 27.8618 34.1595 28.5114 35.5001 29.3413C37.4189 30.4192 39.0135 31.992 40.1176 33.8959C40.9376 35.4131 40.7994 36.3528 39.627 37.6289C39.2991 37.9867 38.9667 38.3407 38.6365 38.6961" fill="currentColor"/>
<path d="M20.667 43.587C17.4332 43.6551 14.2004 43.4111 11.0135 42.8584C9.12739 42.6053 7.31917 41.9481 5.71056 40.9313C5.18834 40.5836 4.75985 40.1126 4.46295 39.56C4.16606 39.0073 4.00993 38.39 4.00835 37.7626C3.96144 36.9317 4.10914 36.1011 4.44101 35.3379C4.77302 34.5747 5.27928 33.8999 5.91917 33.3676C7.85052 31.682 10.0459 30.3252 12.4173 29.3514C13.2357 28.9859 14.0696 28.655 14.9034 28.3264C15.3042 28.1835 15.6634 27.9436 15.949 27.6283C16.2347 27.313 16.4379 26.9319 16.5407 26.519C16.6434 26.1061 16.6425 25.6742 16.538 25.2617C16.4334 24.8493 16.2285 24.4691 15.9414 24.155C13.1546 21.0749 11.6995 17.0175 11.8936 12.8684C12.0618 9.52076 13.3747 6.74364 16.4543 5.09134C20.3962 2.97529 26.3105 3.86287 28.7851 8.43279C29.6678 10.1057 30.0842 11.9848 29.9927 13.8741C29.9058 17.5682 28.5293 21.1155 26.1002 23.9C25.767 24.2944 25.5253 24.7577 25.3926 25.2566C25.2598 25.7555 25.2392 26.2776 25.3324 26.7854C25.3734 27.1428 25.5201 27.4798 25.7537 27.7533C25.9873 28.0269 26.2972 28.2245 26.6438 28.321C28.8964 29.0626 31.0632 30.0433 33.1071 31.2463C34.6633 32.0896 36.0169 33.2621 37.0735 34.6822C37.4188 35.1886 37.6603 35.7585 37.7839 36.3588C37.9076 36.9591 37.9109 37.578 37.7938 38.1797C37.6767 38.7813 37.4415 39.3538 37.1017 39.8639C36.7619 40.374 36.3244 40.8117 35.8143 41.1517C34.7153 41.8263 33.5071 42.3043 32.2441 42.5644C28.4404 43.3703 24.5533 43.7142 20.6672 43.5886" fill="currentColor"/>
<path d="M38.6374 38.6967C38.9676 38.3405 39.3 37.9873 39.6279 37.6295C40.8003 36.3511 40.9378 35.4136 40.1185 33.8965C39.0144 31.9926 37.4198 30.4198 35.501 29.3419C34.1605 28.5119 32.7163 27.8624 31.2059 27.4101C30.9449 27.3732 30.6966 27.2742 30.4817 27.1216C30.2668 26.9689 30.0916 26.767 29.9708 26.5327C29.85 26.2985 29.7871 26.0386 29.7873 25.775C29.7875 25.5115 29.8509 25.2517 29.9721 25.0177C30.0856 24.6992 30.2444 24.3987 30.4435 24.1255C32.6415 20.983 33.6653 17.1679 33.3358 13.3472C33.2651 11.4417 32.4685 9.63537 31.1092 8.29815C31.0393 8.22828 30.9779 8.14996 30.8788 8.03479C31.8405 7.7282 32.8568 7.63402 33.8583 7.75964C34.8599 7.88536 35.8222 8.22747 36.6783 8.76224C37.5345 9.29701 38.2641 10.0116 38.8165 10.8566C39.369 11.7013 39.7316 12.6556 39.8782 13.6543C40.2348 16.5269 39.4909 19.428 37.7959 21.7745C37.4543 22.2997 37.0988 22.8172 36.7433 23.3339C36.3242 23.9586 36.1401 24.7116 36.2235 25.4592C36.2563 25.5983 36.3196 25.7284 36.4088 25.84C36.4981 25.9517 36.611 26.0422 36.7394 26.1049C37.8205 26.574 38.9714 26.8965 40.0164 27.4309C41.8719 28.3227 43.5271 29.5817 44.8819 31.1316C45.3297 31.6657 45.657 32.29 45.8415 32.9621C46.0259 33.6342 46.0632 34.3381 45.9507 35.0259C45.8935 35.4398 45.7472 35.8363 45.5219 36.1881C45.2965 36.54 44.9975 36.8387 44.6454 37.0636C43.4703 37.8113 42.1469 38.2949 40.7665 38.481C40.087 38.6107 39.396 38.6875 38.7111 38.7881L38.6374 38.6967Z" fill="currentColor"/>
</svg>
