<svg width="48" height="48" viewBox="0 0 48 48" fill="none" xmlns="http://www.w3.org/2000/svg">
<path d="M30.1017 33.9492L21.9661 28.4576V33.9492V39.4407L30.1017 33.9492ZM44.5424 1H3.45763C1.52542 1 0 2.52542 0 4.45763V44.2203C0 46.1525 1.52542 47.678 3.45763 47.678H44.4407C46.3729 47.678 47.8983 46.1525 47.8983 44.2203V4.45763C48 2.52542 46.3729 1 44.5424 1ZM10.9831 37.7119H4.88136V35.678H10.9831V37.7119ZM24 43.1017C18.9153 43.1017 14.7458 38.9322 14.7458 33.8475C14.7458 28.7627 18.9153 24.5932 24 24.5932C29.0847 24.5932 33.2542 28.7627 33.2542 33.8475C33.2542 38.9322 29.0847 43.1017 24 43.1017ZM24 22.8644C19.0169 22.8644 14.7458 26.2203 13.4237 30.7966H4.88136V5.98305H43.1186V30.8983H34.5763C33.2542 26.2203 28.983 22.8644 24 22.8644ZM43.1186 37.7119H37.0169V35.678H43.1186V37.7119Z" fill="currentColor"/>
</svg>
