<svg width="24" height="24" viewBox="0 0 24 24" fill="none" xmlns="http://www.w3.org/2000/svg">
<path d="M11.56 8.86996V17H20.32C22.17 16.87 23 15.73 23 14.33C23 12.85 21.88 11.66 20.38 11.66C20 11.66 19.68 11.74 19.35 11.88C19.11 9.53996 17.12 7.70996 14.67 7.70996C13.5 7.70996 12.39 8.14996 11.56 8.86996ZM10.68 9.88996C10.38 9.70996 10.06 9.56996 9.71 9.49996V17H11.1V9.33996C10.95 9.49996 10.81 9.69996 10.68 9.88996ZM8.33 9.34996V17H9.25V9.37996C9.06 9.34996 8.87 9.33996 8.67 9.33996C8.55 9.33996 8.44 9.33996 8.33 9.34996ZM6.5 9.99996V17H7.41V9.53996C7.08 9.64996 6.77 9.80996 6.5 9.99996ZM4.83 12.5C4.77 12.5 4.71 12.44 4.64 12.41V17H5.56V10.86C5.19 11.34 4.94 11.91 4.83 12.5ZM2.79 12.22V16.91C3 16.97 3.24 17 3.5 17H3.72V12.14C3.64 12.13 3.56 12.12 3.5 12.12C3.24 12.12 3 12.16 2.79 12.22ZM1 14.56C1 15.31 1.34 15.97 1.87 16.42V12.71C1.34 13.15 1 13.82 1 14.56Z" fill="currentColor"/>
</svg>
